<?xml version="1.0" encoding="utf-8"?>
<svg id="master-artboard" viewBox="0 0 1400 980" version="1.1" xmlns="http://www.w3.org/2000/svg" x="0px" y="0px" width="1400px" height="980px" enable-background="new 0 0 1400 980" xmlns:xlink="http://www.w3.org/1999/xlink">
<g transform="matrix(1, 0, 0, 1, 0, 0)">
		<g>
			<defs>
				<path d="M 0.75 -2.229 H 1400.000977 V 980.000004 H 0.75 V -2.229 Z" id="SVGID_1_"/>
			</defs>
			<clipPath id="SVGID_2_">
				<use overflow="visible" xlink:href="#SVGID_1_"/>
			</clipPath>
			<path d="M 0.75 -2.229 H 1395.890015 V 975.869022 H 0.75 V -2.229 Z" clip-path="url(#SVGID_2_)" fill="#42EAFE"/>
			<linearGradient id="SVGID_3_" gradientUnits="userSpaceOnUse" x1="376.0171" y1="123.8164" x2="1308.1802" y2="1149.1948">
				<stop offset="0" style="stop-color:#43EFFE"/>
				<stop offset="0.0955" style="stop-color:#4AE7FA"/>
				<stop offset="0.2457" style="stop-color:#5CD0EE"/>
				<stop offset="0.4317" style="stop-color:#7BACDA"/>
				<stop offset="0.6463" style="stop-color:#A578BE"/>
				<stop offset="0.8822" style="stop-color:#DA389C"/>
				<stop offset="1" style="stop-color:#F71589"/>
			</linearGradient>
			<path d="M 12.75 0 H 1407.890015 V 983.098022 H 12.75 V 0 Z" clip-path="url(#SVGID_2_)" fill="url(#SVGID_3_)"/>
			<g clip-path="url(#SVGID_2_)">
				<defs>
					<path d="M 423.080002 409.696991 A 260.621002 260.621002 0 0 1 162.459 670.317993 A 260.621002 260.621002 0 0 1 -98.162003 409.696991 A 260.621002 260.621002 0 0 1 162.459 149.075989 A 260.621002 260.621002 0 0 1 423.080002 409.696991 Z" id="SVGID_4_"/>
				</defs>
				<clipPath id="SVGID_5_">
					<use overflow="visible" xlink:href="#SVGID_4_"/>
				</clipPath>
				<g clip-path="url(#SVGID_5_)">
					<g>
						<g>
							<path fill="#FFFFFF" d="M292.761,669.98c-12.054-9.963-25.923-17.444-42.4-22.874l0.587-1.782&#10;&#9;&#9;&#9;&#9;&#9;&#9;&#9;&#9;c16.701,5.503,30.769,13.094,43.008,23.21"/>
						</g>
						<g>
							<path fill="#FFFFFF" d="M27.658,463.045c-8.434-15.158-18.393-27.371-30.448-37.334&#10;&#9;&#9;&#9;&#9;&#9;&#9;&#9;&#9;c-12.056-9.964-25.925-17.446-42.401-22.875l0.587-1.783c16.702,5.503,30.77,13.095,43.009,23.21&#10;&#9;&#9;&#9;&#9;&#9;&#9;&#9;&#9;c12.239,10.115,22.344,22.502,30.893,37.868L27.658,463.045z"/>
						</g>
						<g>
							<path fill="#FFFFFF" d="M300.783,660.275c-22.768-18.816-48.512-25.719-70.693-29.988l0.355-1.844&#10;&#9;&#9;&#9;&#9;&#9;&#9;&#9;&#9;c22.413,4.315,48.44,11.3,71.533,30.386"/>
						</g>
						<g>
							<path fill="#FFFFFF" d="M47.994,479.787c-8.37-20.979-19.997-44.964-42.763-63.781&#10;&#9;&#9;&#9;&#9;&#9;&#9;&#9;&#9;c-22.769-18.818-48.512-25.719-70.692-29.989l0.355-1.844c22.412,4.315,48.438,11.298,71.533,30.386&#10;&#9;&#9;&#9;&#9;&#9;&#9;&#9;&#9;c23.093,19.086,34.853,43.332,43.312,64.532L47.994,479.787z"/>
						</g>
						<g>
							<path fill="#FFFFFF" d="M308.804,650.57c-28.657-23.686-62.635-29.016-95.495-34.173l0.292-1.854&#10;&#9;&#9;&#9;&#9;&#9;&#9;&#9;&#9;c33.109,5.196,67.348,10.568,96.399,34.579"/>
						</g>
						<g>
							<path fill="#FFFFFF" d="M64.795,493.652c-11.254-31.306-22.888-63.669-51.542-87.352&#10;&#9;&#9;&#9;&#9;&#9;&#9;&#9;&#9;c-28.656-23.684-62.634-29.016-95.493-34.173l0.291-1.854c33.108,5.196,67.345,10.568,96.398,34.58&#10;&#9;&#9;&#9;&#9;&#9;&#9;&#9;&#9;c29.05,24.009,40.772,56.62,52.109,88.156L64.795,493.652z"/>
						</g>
						<g>
							<path fill="#FFFFFF" d="M316.827,640.863c-28.657-23.685-62.635-29.016-95.496-34.172&#10;&#9;&#9;&#9;&#9;&#9;&#9;&#9;&#9;c-8.171-1.282-16.619-2.608-24.866-4.195l0.356-1.843c8.214,1.58,16.646,2.903,24.801,4.184&#10;&#9;&#9;&#9;&#9;&#9;&#9;&#9;&#9;c33.109,5.194,67.348,10.567,96.401,34.579"/>
						</g>
						<g>
							<path fill="#FFFFFF" d="M81.62,507.578c-3.113-7.801-6.006-15.85-8.804-23.633c-11.251-31.3-22.887-63.668-51.542-87.351&#10;&#9;&#9;&#9;&#9;&#9;&#9;&#9;&#9;c-28.656-23.684-62.636-29.017-95.496-34.173c-8.172-1.282-16.621-2.608-24.868-4.195l0.355-1.844&#10;&#9;&#9;&#9;&#9;&#9;&#9;&#9;&#9;c8.215,1.581,16.648,2.905,24.803,4.185c33.11,5.195,67.348,10.567,96.402,34.58c29.052,24.011,40.773,56.624,52.111,88.164&#10;&#9;&#9;&#9;&#9;&#9;&#9;&#9;&#9;c2.792,7.77,5.681,15.802,8.781,23.573L81.62,507.578z"/>
						</g>
						<g>
							<path fill="#FFFFFF" d="M324.848,631.158c-28.657-23.685-62.634-29.017-95.495-34.173&#10;&#9;&#9;&#9;&#9;&#9;&#9;&#9;&#9;c-17.726-2.781-36.054-5.658-53.394-11.371l0.588-1.782c17.194,5.665,35.445,8.528,53.097,11.299&#10;&#9;&#9;&#9;&#9;&#9;&#9;&#9;&#9;c33.109,5.194,67.347,10.568,96.399,34.58"/>
						</g>
						<g>
							<path fill="#FFFFFF" d="M102.059,524.537c-8.875-15.953-15.15-33.411-21.221-50.295&#10;&#9;&#9;&#9;&#9;&#9;&#9;&#9;&#9;c-11.252-31.303-22.886-63.669-51.542-87.353c-28.657-23.685-62.634-29.016-95.494-34.172&#10;&#9;&#9;&#9;&#9;&#9;&#9;&#9;&#9;c-17.609-2.765-35.818-5.622-53.053-11.259l0.584-1.785c17.091,5.592,35.224,8.437,52.761,11.189&#10;&#9;&#9;&#9;&#9;&#9;&#9;&#9;&#9;c33.109,5.196,67.345,10.568,96.398,34.581c29.053,24.012,40.776,56.626,52.114,88.165&#10;&#9;&#9;&#9;&#9;&#9;&#9;&#9;&#9;c6.043,16.814,12.292,34.199,21.093,50.019L102.059,524.537z"/>
						</g>
						<g>
							<path fill="#FFFFFF" d="M140.975,552.699c-29.053-24.012-40.776-56.625-52.114-88.164&#10;&#9;&#9;&#9;&#9;&#9;&#9;&#9;&#9;c-11.253-31.302-22.886-63.669-51.542-87.353c-28.657-23.685-62.635-29.017-95.496-34.173&#10;&#9;&#9;&#9;&#9;&#9;&#9;&#9;&#9;c-17.609-2.763-35.818-5.62-53.052-11.258l0.583-1.784c17.091,5.59,35.223,8.437,52.759,11.188&#10;&#9;&#9;&#9;&#9;&#9;&#9;&#9;&#9;c33.11,5.196,67.348,10.568,96.401,34.581c29.053,24.012,40.776,56.626,52.113,88.165&#10;&#9;&#9;&#9;&#9;&#9;&#9;&#9;&#9;c11.251,31.301,22.886,63.668,51.543,87.352c28.657,23.685,62.636,29.017,95.495,34.173&#10;&#9;&#9;&#9;&#9;&#9;&#9;&#9;&#9;c33.109,5.195,67.346,10.566,96.4,34.58l-1.196,1.446c-28.657-23.685-62.636-29.016-95.496-34.172&#10;&#9;&#9;&#9;&#9;&#9;&#9;&#9;&#9;C204.264,582.083,170.028,576.711,140.975,552.699z"/>
						</g>
						<g>
							<path fill="#FFFFFF" d="M148.996,542.994c-29.053-24.012-40.776-56.626-52.112-88.166&#10;&#9;&#9;&#9;&#9;&#9;&#9;&#9;&#9;c-11.253-31.302-22.886-63.669-51.542-87.354c-28.657-23.684-62.636-29.015-95.496-34.171&#10;&#9;&#9;&#9;&#9;&#9;&#9;&#9;&#9;c-17.609-2.763-35.819-5.62-53.053-11.259l0.583-1.784c17.092,5.591,35.225,8.437,52.76,11.188&#10;&#9;&#9;&#9;&#9;&#9;&#9;&#9;&#9;c33.11,5.195,67.347,10.567,96.4,34.579c29.053,24.012,40.776,56.626,52.113,88.166&#10;&#9;&#9;&#9;&#9;&#9;&#9;&#9;&#9;c11.251,31.301,22.886,63.667,51.543,87.353c28.657,23.685,62.636,29.016,95.495,34.172&#10;&#9;&#9;&#9;&#9;&#9;&#9;&#9;&#9;c33.109,5.194,67.347,10.566,96.401,34.579l-1.196,1.447c-28.657-23.685-62.636-29.016-95.496-34.172&#10;&#9;&#9;&#9;&#9;&#9;&#9;&#9;&#9;C212.286,572.377,178.049,567.006,148.996,542.994z"/>
						</g>
						<g>
							<path fill="#FFFFFF" d="M157.018,533.288c-29.053-24.012-40.776-56.626-52.114-88.164&#10;&#9;&#9;&#9;&#9;&#9;&#9;&#9;&#9;c-11.252-31.303-22.886-63.669-51.542-87.353c-28.657-23.685-62.635-29.017-95.494-34.172&#10;&#9;&#9;&#9;&#9;&#9;&#9;&#9;&#9;c-17.609-2.764-35.819-5.621-53.054-11.259l0.584-1.785c17.091,5.592,35.224,8.437,52.761,11.189&#10;&#9;&#9;&#9;&#9;&#9;&#9;&#9;&#9;c33.109,5.196,67.346,10.569,96.398,34.581s40.776,56.625,52.114,88.164c11.251,31.3,22.885,63.668,51.542,87.354&#10;&#9;&#9;&#9;&#9;&#9;&#9;&#9;&#9;c28.657,23.684,62.637,29.015,95.496,34.171c33.108,5.195,67.345,10.567,96.399,34.581l-1.196,1.446&#10;&#9;&#9;&#9;&#9;&#9;&#9;&#9;&#9;c-28.657-23.685-62.636-29.016-95.496-34.172C220.308,562.672,186.07,557.3,157.018,533.288z"/>
						</g>
						<g>
							<path fill="#FFFFFF" d="M165.04,523.582c-29.053-24.013-40.776-56.626-52.114-88.165&#10;&#9;&#9;&#9;&#9;&#9;&#9;&#9;&#9;c-11.252-31.303-22.886-63.669-51.542-87.353c-28.657-23.685-62.635-29.017-95.495-34.173&#10;&#9;&#9;&#9;&#9;&#9;&#9;&#9;&#9;c-17.609-2.763-35.818-5.62-53.053-11.257l0.584-1.785c17.091,5.591,35.223,8.438,52.759,11.188&#10;&#9;&#9;&#9;&#9;&#9;&#9;&#9;&#9;c33.11,5.197,67.347,10.569,96.4,34.582c29.053,24.012,40.776,56.625,52.114,88.164&#10;&#9;&#9;&#9;&#9;&#9;&#9;&#9;&#9;c11.251,31.302,22.885,63.669,51.542,87.354c28.657,23.685,62.636,29.016,95.496,34.172&#10;&#9;&#9;&#9;&#9;&#9;&#9;&#9;&#9;c33.108,5.195,67.346,10.567,96.4,34.58l-1.196,1.447c-28.657-23.685-62.636-29.017-95.496-34.172&#10;&#9;&#9;&#9;&#9;&#9;&#9;&#9;&#9;C228.33,552.965,194.093,547.594,165.04,523.582z"/>
						</g>
						<g>
							<path fill="#FFFFFF" d="M173.062,513.875c-29.053-24.011-40.777-56.625-52.114-88.164&#10;&#9;&#9;&#9;&#9;&#9;&#9;&#9;&#9;c-11.253-31.302-22.887-63.667-51.543-87.352s-62.634-29.016-95.493-34.173c-17.61-2.763-35.819-5.621-53.054-11.259&#10;&#9;&#9;&#9;&#9;&#9;&#9;&#9;&#9;l0.583-1.784c17.091,5.592,35.225,8.438,52.761,11.189c33.109,5.195,67.346,10.568,96.399,34.58s40.776,56.625,52.113,88.165&#10;&#9;&#9;&#9;&#9;&#9;&#9;&#9;&#9;c11.251,31.301,22.886,63.667,51.543,87.352c28.657,23.685,62.635,29.017,95.495,34.173&#10;&#9;&#9;&#9;&#9;&#9;&#9;&#9;&#9;c33.109,5.195,67.346,10.567,96.4,34.58l-1.196,1.447c-28.657-23.685-62.635-29.017-95.495-34.173&#10;&#9;&#9;&#9;&#9;&#9;&#9;&#9;&#9;C236.352,543.26,202.115,537.888,173.062,513.875z"/>
						</g>
						<g>
							<path fill="#FFFFFF" d="M181.083,504.17c-29.053-24.011-40.776-56.625-52.113-88.164&#10;&#9;&#9;&#9;&#9;&#9;&#9;&#9;&#9;c-11.253-31.302-22.887-63.668-51.543-87.353c-28.656-23.685-62.635-29.017-95.495-34.173&#10;&#9;&#9;&#9;&#9;&#9;&#9;&#9;&#9;c-17.609-2.763-35.818-5.62-53.053-11.257l0.584-1.785c17.091,5.591,35.224,8.437,52.759,11.188&#10;&#9;&#9;&#9;&#9;&#9;&#9;&#9;&#9;c33.11,5.196,67.347,10.569,96.4,34.581c29.053,24.012,40.777,56.625,52.114,88.164&#10;&#9;&#9;&#9;&#9;&#9;&#9;&#9;&#9;c11.251,31.301,22.885,63.669,51.542,87.354c28.657,23.685,62.636,29.016,95.496,34.172&#10;&#9;&#9;&#9;&#9;&#9;&#9;&#9;&#9;c33.109,5.195,67.346,10.567,96.4,34.58l-1.196,1.447c-28.657-23.685-62.636-29.017-95.495-34.173&#10;&#9;&#9;&#9;&#9;&#9;&#9;&#9;&#9;C244.373,533.554,210.136,528.182,181.083,504.17z"/>
						</g>
						<g>
							<path fill="#FFFFFF" d="M189.105,494.464c-29.053-24.012-40.776-56.626-52.113-88.165&#10;&#9;&#9;&#9;&#9;&#9;&#9;&#9;&#9;c-11.253-31.302-22.887-63.668-51.543-87.352s-62.634-29.016-95.493-34.173c-17.61-2.763-35.82-5.62-53.054-11.258&#10;&#9;&#9;&#9;&#9;&#9;&#9;&#9;&#9;l0.584-1.785c17.09,5.592,35.224,8.438,52.761,11.189c33.11,5.195,67.345,10.569,96.398,34.58&#10;&#9;&#9;&#9;&#9;&#9;&#9;&#9;&#9;c29.053,24.012,40.777,56.625,52.114,88.164c11.251,31.301,22.886,63.668,51.543,87.353&#10;&#9;&#9;&#9;&#9;&#9;&#9;&#9;&#9;c28.657,23.684,62.635,29.017,95.495,34.172c33.109,5.194,67.345,10.567,96.4,34.581L381,563.217&#10;&#9;&#9;&#9;&#9;&#9;&#9;&#9;&#9;c-28.657-23.685-62.635-29.018-95.495-34.174C252.396,523.848,218.158,518.476,189.105,494.464z"/>
						</g>
						<g>
							<path fill="#FFFFFF" d="M197.127,484.758c-29.053-24.012-40.776-56.625-52.114-88.164&#10;&#9;&#9;&#9;&#9;&#9;&#9;&#9;&#9;c-11.253-31.302-22.886-63.669-51.542-87.353c-28.657-23.684-62.634-29.016-95.495-34.171&#10;&#9;&#9;&#9;&#9;&#9;&#9;&#9;&#9;c-17.609-2.764-35.818-5.622-53.053-11.259l0.584-1.785c17.091,5.591,35.224,8.438,52.76,11.188&#10;&#9;&#9;&#9;&#9;&#9;&#9;&#9;&#9;c33.108,5.196,67.346,10.568,96.399,34.58c29.053,24.012,40.776,56.626,52.114,88.164&#10;&#9;&#9;&#9;&#9;&#9;&#9;&#9;&#9;c11.25,31.302,22.885,63.668,51.542,87.353c28.657,23.685,62.635,29.017,95.496,34.171&#10;&#9;&#9;&#9;&#9;&#9;&#9;&#9;&#9;c33.108,5.196,67.345,10.568,96.4,34.581l-1.196,1.446c-28.657-23.684-62.637-29.016-95.496-34.172&#10;&#9;&#9;&#9;&#9;&#9;&#9;&#9;&#9;C260.417,514.143,226.18,508.77,197.127,484.758z"/>
						</g>
						<g>
							<path fill="#FFFFFF" d="M205.148,475.053c-29.053-24.012-40.776-56.626-52.113-88.165&#10;&#9;&#9;&#9;&#9;&#9;&#9;&#9;&#9;c-11.253-31.302-22.887-63.668-51.543-87.353S38.857,270.52,5.998,265.364c-17.609-2.764-35.819-5.621-53.053-11.259&#10;&#9;&#9;&#9;&#9;&#9;&#9;&#9;&#9;l0.583-1.785c17.091,5.591,35.224,8.437,52.76,11.189c33.109,5.195,67.347,10.567,96.4,34.579&#10;&#9;&#9;&#9;&#9;&#9;&#9;&#9;&#9;c29.053,24.012,40.776,56.626,52.113,88.165c11.251,31.3,22.886,63.667,51.543,87.353&#10;&#9;&#9;&#9;&#9;&#9;&#9;&#9;&#9;c28.657,23.685,62.636,29.016,95.495,34.172c33.109,5.195,67.346,10.566,96.4,34.58l-1.196,1.447&#10;&#9;&#9;&#9;&#9;&#9;&#9;&#9;&#9;c-28.657-23.684-62.636-29.016-95.495-34.172C268.438,504.436,234.201,499.064,205.148,475.053z"/>
						</g>
						<g>
							<path fill="#FFFFFF" d="M213.17,465.347c-29.053-24.012-40.776-56.626-52.112-88.165&#10;&#9;&#9;&#9;&#9;&#9;&#9;&#9;&#9;c-11.253-31.302-22.887-63.668-51.543-87.352c-28.657-23.684-62.635-29.016-95.494-34.172&#10;&#9;&#9;&#9;&#9;&#9;&#9;&#9;&#9;c-17.609-2.763-35.819-5.621-53.054-11.258l0.584-1.785c17.091,5.591,35.225,8.436,52.761,11.188&#10;&#9;&#9;&#9;&#9;&#9;&#9;&#9;&#9;c33.109,5.196,67.346,10.569,96.399,34.581c29.053,24.012,40.777,56.625,52.114,88.164&#10;&#9;&#9;&#9;&#9;&#9;&#9;&#9;&#9;c11.25,31.302,22.885,63.668,51.542,87.353c28.657,23.685,62.635,29.017,95.496,34.172&#10;&#9;&#9;&#9;&#9;&#9;&#9;&#9;&#9;c33.109,5.193,67.345,10.566,96.4,34.58l-1.196,1.447c-28.657-23.686-62.635-29.018-95.495-34.174&#10;&#9;&#9;&#9;&#9;&#9;&#9;&#9;&#9;C276.46,494.73,242.223,489.359,213.17,465.347z"/>
						</g>
						<g>
							<path fill="#FFFFFF" d="M221.192,455.641c-29.053-24.012-40.776-56.625-52.113-88.165&#10;&#9;&#9;&#9;&#9;&#9;&#9;&#9;&#9;c-11.252-31.303-22.886-63.669-51.542-87.353c-28.657-23.685-62.635-29.017-95.494-34.174&#10;&#9;&#9;&#9;&#9;&#9;&#9;&#9;&#9;c-17.61-2.763-35.819-5.62-53.054-11.258l0.583-1.783c17.092,5.591,35.225,8.436,52.762,11.187&#10;&#9;&#9;&#9;&#9;&#9;&#9;&#9;&#9;c33.109,5.196,67.345,10.569,96.398,34.581c29.053,24.012,40.777,56.624,52.114,88.164&#10;&#9;&#9;&#9;&#9;&#9;&#9;&#9;&#9;c11.25,31.302,22.885,63.669,51.542,87.354c28.657,23.685,62.636,29.016,95.496,34.172&#10;&#9;&#9;&#9;&#9;&#9;&#9;&#9;&#9;c33.109,5.194,67.345,10.567,96.399,34.58l-1.196,1.447c-28.657-23.685-62.635-29.017-95.495-34.173&#10;&#9;&#9;&#9;&#9;&#9;&#9;&#9;&#9;C284.481,485.025,250.245,479.653,221.192,455.641z"/>
						</g>
						<g>
							<path fill="#FFFFFF" d="M229.214,445.934c-29.053-24.012-40.777-56.624-52.114-88.164&#10;&#9;&#9;&#9;&#9;&#9;&#9;&#9;&#9;c-11.253-31.302-22.886-63.669-51.542-87.354c-28.657-23.684-62.636-29.015-95.495-34.172&#10;&#9;&#9;&#9;&#9;&#9;&#9;&#9;&#9;c-17.61-2.763-35.819-5.621-53.053-11.259l0.583-1.784c17.091,5.591,35.225,8.436,52.76,11.189&#10;&#9;&#9;&#9;&#9;&#9;&#9;&#9;&#9;c33.109,5.195,67.347,10.567,96.4,34.579s40.776,56.626,52.113,88.166c11.252,31.3,22.886,63.667,51.543,87.352&#10;&#9;&#9;&#9;&#9;&#9;&#9;&#9;&#9;c28.657,23.685,62.636,29.017,95.495,34.173c33.109,5.194,67.347,10.566,96.401,34.58l-1.196,1.446&#10;&#9;&#9;&#9;&#9;&#9;&#9;&#9;&#9;c-28.657-23.685-62.636-29.016-95.496-34.172C292.503,475.319,258.267,469.946,229.214,445.934z"/>
						</g>
						<g>
							<path fill="#FFFFFF" d="M237.235,436.23c-29.053-24.012-40.776-56.626-52.113-88.166&#10;&#9;&#9;&#9;&#9;&#9;&#9;&#9;&#9;c-11.253-31.302-22.887-63.667-51.543-87.352c-28.657-23.685-62.634-29.017-95.494-34.173&#10;&#9;&#9;&#9;&#9;&#9;&#9;&#9;&#9;c-17.609-2.764-35.819-5.621-53.053-11.259l0.583-1.784c17.092,5.59,35.225,8.437,52.761,11.188&#10;&#9;&#9;&#9;&#9;&#9;&#9;&#9;&#9;c33.109,5.195,67.345,10.569,96.398,34.581c29.053,24.012,40.777,56.625,52.114,88.164&#10;&#9;&#9;&#9;&#9;&#9;&#9;&#9;&#9;c11.251,31.301,22.885,63.669,51.542,87.354c28.657,23.685,62.637,29.016,95.496,34.172&#10;&#9;&#9;&#9;&#9;&#9;&#9;&#9;&#9;c33.109,5.194,67.345,10.567,96.399,34.58l-1.196,1.447c-28.657-23.685-62.635-29.017-95.495-34.173&#10;&#9;&#9;&#9;&#9;&#9;&#9;&#9;&#9;C300.525,465.613,266.288,460.242,237.235,436.23z"/>
						</g>
						<g>
							<path fill="#FFFFFF" d="M245.257,426.523c-29.053-24.012-40.776-56.626-52.113-88.166&#10;&#9;&#9;&#9;&#9;&#9;&#9;&#9;&#9;c-11.253-31.301-22.887-63.668-51.543-87.352c-28.656-23.685-62.635-29.016-95.495-34.173&#10;&#9;&#9;&#9;&#9;&#9;&#9;&#9;&#9;c-17.609-2.763-35.818-5.62-53.052-11.258l0.583-1.784c17.091,5.591,35.224,8.437,52.759,11.188&#10;&#9;&#9;&#9;&#9;&#9;&#9;&#9;&#9;c33.111,5.196,67.347,10.569,96.4,34.582c29.053,24.012,40.777,56.624,52.113,88.165&#10;&#9;&#9;&#9;&#9;&#9;&#9;&#9;&#9;c11.251,31.301,22.886,63.668,51.543,87.353c28.657,23.685,62.636,29.016,95.495,34.172&#10;&#9;&#9;&#9;&#9;&#9;&#9;&#9;&#9;c33.11,5.193,67.346,10.567,96.4,34.58l-1.196,1.446c-28.657-23.685-62.636-29.016-95.495-34.173&#10;&#9;&#9;&#9;&#9;&#9;&#9;&#9;&#9;C308.547,455.907,274.31,450.535,245.257,426.523z"/>
						</g>
						<g>
							<path fill="#FFFFFF" d="M253.279,416.817c-29.053-24.012-40.777-56.625-52.113-88.165&#10;&#9;&#9;&#9;&#9;&#9;&#9;&#9;&#9;c-11.252-31.303-22.886-63.669-51.542-87.354s-62.635-29.016-95.496-34.171c-17.609-2.763-35.818-5.621-53.053-11.258&#10;&#9;&#9;&#9;&#9;&#9;&#9;&#9;&#9;l0.583-1.784c17.091,5.591,35.224,8.437,52.76,11.188c33.109,5.195,67.347,10.567,96.4,34.579&#10;&#9;&#9;&#9;&#9;&#9;&#9;&#9;&#9;c29.053,24.012,40.776,56.626,52.113,88.166c11.251,31.301,22.886,63.668,51.542,87.353&#10;&#9;&#9;&#9;&#9;&#9;&#9;&#9;&#9;c28.657,23.685,62.636,29.016,95.496,34.172c33.109,5.194,67.346,10.566,96.401,34.579l-1.196,1.447&#10;&#9;&#9;&#9;&#9;&#9;&#9;&#9;&#9;c-28.657-23.685-62.636-29.016-95.496-34.172C316.569,446.202,282.332,440.829,253.279,416.817z"/>
						</g>
						<g>
							<path fill="#FFFFFF" d="M261.301,407.111c-29.053-24.012-40.777-56.625-52.114-88.164&#10;&#9;&#9;&#9;&#9;&#9;&#9;&#9;&#9;c-11.253-31.301-22.887-63.667-51.543-87.352c-28.656-23.685-62.635-29.017-95.495-34.173&#10;&#9;&#9;&#9;&#9;&#9;&#9;&#9;&#9;c-17.608-2.764-35.817-5.621-53.052-11.259l0.583-1.784c17.091,5.591,35.224,8.437,52.76,11.188&#10;&#9;&#9;&#9;&#9;&#9;&#9;&#9;&#9;c33.109,5.195,67.346,10.568,96.399,34.58c29.053,24.012,40.776,56.625,52.113,88.165&#10;&#9;&#9;&#9;&#9;&#9;&#9;&#9;&#9;c11.251,31.3,22.887,63.667,51.543,87.352c28.657,23.685,62.635,29.017,95.495,34.173c33.109,5.194,67.346,10.566,96.4,34.58&#10;&#9;&#9;&#9;&#9;&#9;&#9;&#9;&#9;l-1.196,1.448c-28.657-23.685-62.636-29.017-95.495-34.173C324.59,436.496,290.354,431.123,261.301,407.111z"/>
						</g>
						<g>
							<path fill="#FFFFFF" d="M269.323,397.406c-29.053-24.012-40.777-56.625-52.113-88.165&#10;&#9;&#9;&#9;&#9;&#9;&#9;&#9;&#9;c-11.253-31.302-22.887-63.669-51.543-87.353c-28.656-23.685-62.635-29.016-95.494-34.173&#10;&#9;&#9;&#9;&#9;&#9;&#9;&#9;&#9;c-17.61-2.763-35.82-5.62-53.054-11.258l0.583-1.784c17.092,5.59,35.225,8.436,52.761,11.188&#10;&#9;&#9;&#9;&#9;&#9;&#9;&#9;&#9;c33.109,5.196,67.346,10.568,96.399,34.581c29.053,24.012,40.777,56.625,52.113,88.165&#10;&#9;&#9;&#9;&#9;&#9;&#9;&#9;&#9;c11.251,31.301,22.886,63.668,51.543,87.353c28.657,23.685,62.635,29.017,95.495,34.172&#10;&#9;&#9;&#9;&#9;&#9;&#9;&#9;&#9;c33.109,5.194,67.346,10.567,96.4,34.58l-1.196,1.447c-28.657-23.685-62.636-29.017-95.495-34.173&#10;&#9;&#9;&#9;&#9;&#9;&#9;&#9;&#9;C332.612,426.79,298.375,421.417,269.323,397.406z"/>
						</g>
						<g>
							<path fill="#FFFFFF" d="M277.344,387.7c-29.053-24.012-40.776-56.626-52.114-88.164&#10;&#9;&#9;&#9;&#9;&#9;&#9;&#9;&#9;c-11.251-31.303-22.886-63.669-51.542-87.353c-28.657-23.684-62.635-29.017-95.496-34.172&#10;&#9;&#9;&#9;&#9;&#9;&#9;&#9;&#9;c-17.608-2.764-35.817-5.621-53.052-11.259l0.584-1.785c17.09,5.592,35.223,8.438,52.759,11.188&#10;&#9;&#9;&#9;&#9;&#9;&#9;&#9;&#9;c33.109,5.197,67.347,10.569,96.4,34.581c29.053,24.012,40.776,56.626,52.114,88.164&#10;&#9;&#9;&#9;&#9;&#9;&#9;&#9;&#9;c11.25,31.302,22.885,63.668,51.542,87.353c28.657,23.685,62.635,29.017,95.496,34.172&#10;&#9;&#9;&#9;&#9;&#9;&#9;&#9;&#9;c33.108,5.196,67.345,10.567,96.399,34.581l-1.195,1.447c-28.657-23.685-62.635-29.017-95.496-34.172&#10;&#9;&#9;&#9;&#9;&#9;&#9;&#9;&#9;C340.635,417.083,306.397,411.711,277.344,387.7z"/>
						</g>
						<g>
							<path fill="#FFFFFF" d="M285.366,377.995c-29.053-24.012-40.777-56.625-52.113-88.166&#10;&#9;&#9;&#9;&#9;&#9;&#9;&#9;&#9;c-11.253-31.301-22.887-63.668-51.542-87.353c-28.656-23.684-62.635-29.015-95.494-34.171&#10;&#9;&#9;&#9;&#9;&#9;&#9;&#9;&#9;c-17.609-2.764-35.818-5.622-53.053-11.26l0.584-1.785c17.091,5.592,35.225,8.439,52.761,11.189&#10;&#9;&#9;&#9;&#9;&#9;&#9;&#9;&#9;c33.108,5.196,67.345,10.569,96.397,34.58c29.053,24.012,40.777,56.625,52.113,88.166&#10;&#9;&#9;&#9;&#9;&#9;&#9;&#9;&#9;c11.252,31.3,22.886,63.667,51.543,87.352c28.657,23.685,62.636,29.017,95.495,34.173&#10;&#9;&#9;&#9;&#9;&#9;&#9;&#9;&#9;c33.11,5.194,67.347,10.566,96.401,34.579l-1.196,1.447c-28.657-23.685-62.636-29.016-95.495-34.172&#10;&#9;&#9;&#9;&#9;&#9;&#9;&#9;&#9;C348.655,407.379,314.418,402.006,285.366,377.995z"/>
						</g>
						<g>
							<path fill="#FFFFFF" d="M293.388,368.288c-29.053-24.012-40.777-56.625-52.114-88.164&#10;&#9;&#9;&#9;&#9;&#9;&#9;&#9;&#9;c-11.252-31.303-22.887-63.668-51.543-87.353c-28.657-23.685-62.635-29.017-95.496-34.173&#10;&#9;&#9;&#9;&#9;&#9;&#9;&#9;&#9;c-17.609-2.764-35.818-5.62-53.052-11.257l0.584-1.785c17.091,5.591,35.224,8.437,52.759,11.188&#10;&#9;&#9;&#9;&#9;&#9;&#9;&#9;&#9;c33.109,5.196,67.347,10.569,96.4,34.581c29.053,24.012,40.776,56.625,52.114,88.164&#10;&#9;&#9;&#9;&#9;&#9;&#9;&#9;&#9;c11.251,31.301,22.886,63.667,51.543,87.352c28.657,23.685,62.635,29.017,95.495,34.173&#10;&#9;&#9;&#9;&#9;&#9;&#9;&#9;&#9;c33.108,5.195,67.345,10.567,96.399,34.581l-1.195,1.447c-28.657-23.685-62.636-29.017-95.496-34.172&#10;&#9;&#9;&#9;&#9;&#9;&#9;&#9;&#9;C356.678,397.672,322.441,392.3,293.388,368.288z"/>
						</g>
						<g>
							<path fill="#FFFFFF" d="M301.41,358.582c-29.053-24.012-40.776-56.626-52.113-88.165&#10;&#9;&#9;&#9;&#9;&#9;&#9;&#9;&#9;c-11.253-31.302-22.888-63.668-51.544-87.352c-28.656-23.685-62.634-29.017-95.494-34.173&#10;&#9;&#9;&#9;&#9;&#9;&#9;&#9;&#9;c-17.609-2.764-35.819-5.621-53.053-11.259l0.584-1.785c17.09,5.592,35.224,8.437,52.76,11.188&#10;&#9;&#9;&#9;&#9;&#9;&#9;&#9;&#9;c33.109,5.195,67.345,10.569,96.398,34.581c29.053,24.012,40.777,56.624,52.115,88.163&#10;&#9;&#9;&#9;&#9;&#9;&#9;&#9;&#9;c11.25,31.302,22.885,63.668,51.542,87.353c28.657,23.685,62.635,29.017,95.496,34.172&#10;&#9;&#9;&#9;&#9;&#9;&#9;&#9;&#9;c33.108,5.195,67.345,10.568,96.399,34.581l-1.196,1.447c-28.657-23.685-62.635-29.017-95.495-34.173&#10;&#9;&#9;&#9;&#9;&#9;&#9;&#9;&#9;C364.7,387.965,330.463,382.594,301.41,358.582z"/>
						</g>
						<g>
							<path fill="#FFFFFF" d="M309.432,348.876c-29.053-24.012-40.777-56.624-52.113-88.165&#10;&#9;&#9;&#9;&#9;&#9;&#9;&#9;&#9;c-11.253-31.301-22.887-63.668-51.543-87.353s-62.636-29.015-95.494-34.172c-17.61-2.763-35.818-5.622-53.053-11.259&#10;&#9;&#9;&#9;&#9;&#9;&#9;&#9;&#9;l0.583-1.784c17.092,5.591,35.226,8.436,52.761,11.188c33.109,5.196,67.346,10.567,96.399,34.58s40.777,56.625,52.113,88.166&#10;&#9;&#9;&#9;&#9;&#9;&#9;&#9;&#9;c11.252,31.3,22.886,63.667,51.543,87.352c28.657,23.685,62.636,29.017,95.495,34.173&#10;&#9;&#9;&#9;&#9;&#9;&#9;&#9;&#9;c33.11,5.194,67.347,10.566,96.401,34.579l-1.196,1.447c-28.657-23.685-62.637-29.015-95.495-34.172&#10;&#9;&#9;&#9;&#9;&#9;&#9;&#9;&#9;C372.721,378.261,338.484,372.888,309.432,348.876z"/>
						</g>
						<g>
							<path fill="#FFFFFF" d="M317.454,339.169c-29.053-24.012-40.777-56.625-52.114-88.163&#10;&#9;&#9;&#9;&#9;&#9;&#9;&#9;&#9;c-11.252-31.303-22.887-63.668-51.543-87.353c-28.657-23.684-62.635-29.016-95.494-34.172&#10;&#9;&#9;&#9;&#9;&#9;&#9;&#9;&#9;c-17.61-2.763-35.819-5.62-53.053-11.259l0.583-1.784c17.091,5.59,35.225,8.436,52.76,11.188&#10;&#9;&#9;&#9;&#9;&#9;&#9;&#9;&#9;c33.109,5.195,67.347,10.567,96.4,34.58c29.053,24.012,40.776,56.625,52.113,88.165&#10;&#9;&#9;&#9;&#9;&#9;&#9;&#9;&#9;c11.251,31.301,22.886,63.667,51.543,87.352c28.657,23.685,62.635,29.017,95.495,34.173&#10;&#9;&#9;&#9;&#9;&#9;&#9;&#9;&#9;c33.108,5.195,67.346,10.567,96.4,34.58l-1.196,1.447c-28.657-23.685-62.636-29.017-95.496-34.172&#10;&#9;&#9;&#9;&#9;&#9;&#9;&#9;&#9;C380.743,368.555,346.507,363.182,317.454,339.169z"/>
						</g>
						<g>
							<path fill="#FFFFFF" d="M325.475,329.465c-29.053-24.012-40.776-56.626-52.113-88.166&#10;&#9;&#9;&#9;&#9;&#9;&#9;&#9;&#9;c-11.253-31.302-22.886-63.668-51.542-87.353c-28.657-23.684-62.636-29.016-95.496-34.172&#10;&#9;&#9;&#9;&#9;&#9;&#9;&#9;&#9;c-17.609-2.764-35.818-5.621-53.052-11.258l0.584-1.785c17.09,5.592,35.224,8.437,52.759,11.188&#10;&#9;&#9;&#9;&#9;&#9;&#9;&#9;&#9;c33.11,5.196,67.347,10.569,96.401,34.581c29.053,24.012,40.776,56.625,52.113,88.165&#10;&#9;&#9;&#9;&#9;&#9;&#9;&#9;&#9;c11.251,31.302,22.885,63.669,51.542,87.354c28.657,23.685,62.636,29.016,95.496,34.172&#10;&#9;&#9;&#9;&#9;&#9;&#9;&#9;&#9;c33.109,5.194,67.346,10.566,96.4,34.58l-1.196,1.447c-28.657-23.685-62.636-29.016-95.495-34.173&#10;&#9;&#9;&#9;&#9;&#9;&#9;&#9;&#9;C388.765,358.849,354.527,353.477,325.475,329.465z"/>
						</g>
						<g>
							<path fill="#FFFFFF" d="M333.497,319.758c-29.053-24.012-40.777-56.624-52.114-88.164&#10;&#9;&#9;&#9;&#9;&#9;&#9;&#9;&#9;c-11.252-31.303-22.886-63.669-51.542-87.354s-62.635-29.016-95.494-34.172c-17.61-2.763-35.82-5.62-53.053-11.259&#10;&#9;&#9;&#9;&#9;&#9;&#9;&#9;&#9;l0.583-1.784c17.091,5.591,35.224,8.436,52.76,11.188c33.109,5.195,67.346,10.568,96.399,34.58s40.777,56.625,52.113,88.166&#10;&#9;&#9;&#9;&#9;&#9;&#9;&#9;&#9;c11.252,31.3,22.886,63.667,51.543,87.352c28.657,23.685,62.636,29.017,95.495,34.173&#10;&#9;&#9;&#9;&#9;&#9;&#9;&#9;&#9;c33.11,5.194,67.346,10.566,96.401,34.579l-1.196,1.447c-28.657-23.685-62.636-29.016-95.496-34.172&#10;&#9;&#9;&#9;&#9;&#9;&#9;&#9;&#9;C396.786,349.144,362.55,343.771,333.497,319.758z"/>
						</g>
						<g>
							<path fill="#FFFFFF" d="M341.518,310.054c-29.053-24.012-40.775-56.626-52.113-88.166&#10;&#9;&#9;&#9;&#9;&#9;&#9;&#9;&#9;c-11.252-31.303-22.886-63.669-51.542-87.353c-28.657-23.685-62.635-29.016-95.495-34.172&#10;&#9;&#9;&#9;&#9;&#9;&#9;&#9;&#9;c-17.61-2.763-35.819-5.621-53.053-11.259l0.583-1.784c17.091,5.591,35.224,8.437,52.76,11.189&#10;&#9;&#9;&#9;&#9;&#9;&#9;&#9;&#9;c33.11,5.195,67.347,10.567,96.4,34.579c29.053,24.012,40.776,56.626,52.113,88.165&#10;&#9;&#9;&#9;&#9;&#9;&#9;&#9;&#9;c11.25,31.301,22.885,63.668,51.542,87.353c28.657,23.685,62.636,29.017,95.496,34.172&#10;&#9;&#9;&#9;&#9;&#9;&#9;&#9;&#9;c33.108,5.195,67.346,10.567,96.4,34.58l-1.196,1.447c-28.657-23.685-62.636-29.017-95.496-34.172&#10;&#9;&#9;&#9;&#9;&#9;&#9;&#9;&#9;C404.808,339.437,370.57,334.066,341.518,310.054z"/>
						</g>
						<g>
							<path fill="#FFFFFF" d="M349.54,300.348c-29.053-24.012-40.777-56.625-52.113-88.166&#10;&#9;&#9;&#9;&#9;&#9;&#9;&#9;&#9;c-11.253-31.302-22.887-63.668-51.543-87.352c-28.656-23.685-62.634-29.017-95.494-34.173&#10;&#9;&#9;&#9;&#9;&#9;&#9;&#9;&#9;c-17.609-2.764-35.819-5.621-53.053-11.259l0.583-1.784c17.091,5.591,35.224,8.437,52.761,11.188&#10;&#9;&#9;&#9;&#9;&#9;&#9;&#9;&#9;c33.109,5.195,67.346,10.568,96.399,34.58c29.053,24.012,40.777,56.625,52.113,88.166&#10;&#9;&#9;&#9;&#9;&#9;&#9;&#9;&#9;c11.252,31.3,22.886,63.668,51.543,87.353c28.657,23.685,62.636,29.015,95.495,34.172&#10;&#9;&#9;&#9;&#9;&#9;&#9;&#9;&#9;c33.11,5.193,67.347,10.566,96.401,34.579l-1.196,1.447c-28.657-23.685-62.635-29.017-95.495-34.173&#10;&#9;&#9;&#9;&#9;&#9;&#9;&#9;&#9;C412.83,329.731,378.593,324.359,349.54,300.348z"/>
						</g>
						<g>
							<path fill="#FFFFFF" d="M357.562,290.641c-29.055-24.013-40.779-56.628-52.117-88.168&#10;&#9;&#9;&#9;&#9;&#9;&#9;&#9;&#9;c-6.043-16.812-12.292-34.197-21.091-50.014l1.641-0.914c8.874,15.952,15.149,33.41,21.218,50.294&#10;&#9;&#9;&#9;&#9;&#9;&#9;&#9;&#9;c11.252,31.303,22.888,63.671,51.545,87.355c28.657,23.685,62.636,29.017,95.496,34.173&#10;&#9;&#9;&#9;&#9;&#9;&#9;&#9;&#9;c17.724,2.781,36.053,5.658,53.393,11.369l-0.589,1.784c-17.192-5.665-35.444-8.529-53.094-11.299&#10;&#9;&#9;&#9;&#9;&#9;&#9;&#9;&#9;C420.852,320.025,386.615,314.653,357.562,290.641z"/>
						</g>
						<g>
							<path fill="#FFFFFF" d="M105.358,69.693l0.583-1.785c17.091,5.591,35.224,8.436,52.761,11.188&#10;&#9;&#9;&#9;&#9;&#9;&#9;&#9;&#9;c17.725,2.782,36.053,5.658,53.391,11.369l-0.588,1.784c-17.191-5.665-35.444-8.529-53.094-11.298&#10;&#9;&#9;&#9;&#9;&#9;&#9;&#9;&#9;C140.802,78.188,122.593,75.331,105.358,69.693z"/>
						</g>
						<g>
							<path fill="#FFFFFF" d="M365.583,280.936c-29.055-24.013-40.777-56.626-52.114-88.167c-2.792-7.769-5.679-15.8-8.779-23.569&#10;&#9;&#9;&#9;&#9;&#9;&#9;&#9;&#9;l1.745-0.697c3.11,7.799,6.003,15.847,8.801,23.63c11.25,31.302,22.886,63.67,51.543,87.355&#10;&#9;&#9;&#9;&#9;&#9;&#9;&#9;&#9;c28.657,23.685,62.636,29.016,95.497,34.172c8.171,1.283,16.619,2.608,24.866,4.194l-0.356,1.844&#10;&#9;&#9;&#9;&#9;&#9;&#9;&#9;&#9;c-8.213-1.581-16.646-2.904-24.8-4.185C428.874,310.319,394.636,304.948,365.583,280.936z"/>
						</g>
						<g>
							<path fill="#FFFFFF" d="M113.38,59.987l0.583-1.784c17.09,5.59,35.221,8.436,52.755,11.187&#10;&#9;&#9;&#9;&#9;&#9;&#9;&#9;&#9;c8.172,1.282,16.622,2.608,24.872,4.196l-0.356,1.844c-8.216-1.583-16.65-2.907-24.806-4.187&#10;&#9;&#9;&#9;&#9;&#9;&#9;&#9;&#9;C148.821,68.482,130.614,65.624,113.38,59.987z"/>
						</g>
						<g>
							<path fill="#FFFFFF" d="M373.605,271.23c-29.053-24.012-40.776-56.625-52.113-88.166l1.764-0.635&#10;&#9;&#9;&#9;&#9;&#9;&#9;&#9;&#9;c11.253,31.302,22.889,63.67,51.544,87.354c28.656,23.683,62.632,29.015,95.49,34.17l-0.284,1.855&#10;&#9;&#9;&#9;&#9;&#9;&#9;&#9;&#9;C436.892,300.614,402.656,295.24,373.605,271.23z"/>
						</g>
						<g>
							<path fill="#FFFFFF" d="M121.401,50.282l0.584-1.785c17.082,5.588,35.205,8.433,52.731,11.184l-0.263,1.858&#10;&#9;&#9;&#9;&#9;&#9;&#9;&#9;&#9;C156.826,58.772,138.627,55.916,121.401,50.282z"/>
						</g>
						<g>
							<path fill="#FFFFFF" d="M381.627,261.523c-23.094-19.087-34.854-43.332-43.312-64.532l1.745-0.696&#10;&#9;&#9;&#9;&#9;&#9;&#9;&#9;&#9;c8.368,20.979,19.995,44.964,42.762,63.781c22.769,18.818,48.513,25.72,70.694,29.989l-0.357,1.844&#10;&#9;&#9;&#9;&#9;&#9;&#9;&#9;&#9;C430.749,287.596,404.721,280.609,381.627,261.523z"/>
						</g>
						<g>
							<path fill="#FFFFFF" d="M129.424,40.576l0.583-1.785c8.224,2.691,17.107,4.916,27.956,7.003l-0.355,1.843&#10;&#9;&#9;&#9;&#9;&#9;&#9;&#9;&#9;C146.68,45.536,137.724,43.292,129.424,40.576z"/>
						</g>
						<g>
							<path fill="#FFFFFF" d="M389.649,251.818c-12.24-10.116-22.344-22.503-30.894-37.868l1.642-0.914&#10;&#9;&#9;&#9;&#9;&#9;&#9;&#9;&#9;c8.432,15.158,18.392,27.371,30.448,37.334c12.054,9.963,25.924,17.446,42.399,22.873l-0.588,1.784&#10;&#9;&#9;&#9;&#9;&#9;&#9;&#9;&#9;C415.957,269.524,401.889,261.934,389.649,251.818z"/>
						</g>
					</g>
				</g>
			</g>
			
				<linearGradient id="SVGID_6_" gradientUnits="userSpaceOnUse" x1="1099.4238" y1="254.4824" x2="-286.7139" y2="-384.5812" gradientTransform="matrix(0.9795 0.2015 -0.2015 0.9795 44.8638 -150.3643)">
				<stop offset="0" style="stop-color:#43EFFE"/>
				<stop offset="0.0955" style="stop-color:#4AE7FA"/>
				<stop offset="0.2457" style="stop-color:#5CD0EE"/>
				<stop offset="0.4317" style="stop-color:#7BACDA"/>
				<stop offset="0.6463" style="stop-color:#A578BE"/>
				<stop offset="0.8822" style="stop-color:#DA389C"/>
				<stop offset="1" style="stop-color:#F71589"/>
			</linearGradient>
			<path clip-path="url(#SVGID_2_)" fill="url(#SVGID_6_)" d="M82.281-178.398c0,0-24.612,407.399,279.374,478.115&#10;&#9;&#9;&#9;&#9;c303.985,70.716,473.416-67.983,701.292,5.449c227.875,73.433,360.045,76.125,401.917-47.982&#10;&#9;&#9;&#9;&#9;c41.872-124.107,25.216-162.247,25.216-162.247L82.281-178.398z"/>
			<g opacity="0.6" clip-path="url(#SVGID_2_)">
				<defs>
					<path d="M 1102.458984 105.696999 A 148 148 0 0 1 954.458984 253.696999 A 148 148 0 0 1 806.458984 105.696999 A 148 148 0 0 1 954.458984 -42.303001 A 148 148 0 0 1 1102.458984 105.696999 Z" id="SVGID_7_" opacity="0.6"/>
				</defs>
				<clipPath id="SVGID_8_">
					<use overflow="visible" xlink:href="#SVGID_7_"/>
				</clipPath>
				<g clip-path="url(#SVGID_8_)">
					<g>
						<g>
							<path fill="#FFFFFF" d="M1206.715,271.315c-15.639,0-31.096,3.068-47.255,9.38l-0.683-1.748&#10;&#9;&#9;&#9;&#9;&#9;&#9;&#9;&#9;c16.379-6.398,32.059-9.509,47.938-9.509"/>
						</g>
						<g>
							<path fill="#FFFFFF" d="M870.539,280.695c-16.157-6.312-31.614-9.38-47.254-9.38c-15.641,0-31.098,3.068-47.256,9.38&#10;&#9;&#9;&#9;&#9;&#9;&#9;&#9;&#9;l-0.683-1.748c16.38-6.398,32.06-9.509,47.938-9.509c15.878,0,31.558,3.11,47.937,9.509L870.539,280.695z"/>
						</g>
						<g>
							<path fill="#FFFFFF" d="M1206.715,258.725c-29.537,0-53.778,11.081-73.596,21.92l-0.9-1.647&#10;&#9;&#9;&#9;&#9;&#9;&#9;&#9;&#9;c20.025-10.952,44.537-22.149,74.496-22.149"/>
						</g>
						<g>
							<path fill="#FFFFFF" d="M896.88,280.645c-19.817-10.839-44.059-21.92-73.595-21.92c-29.539,0-53.778,11.081-73.596,21.92&#10;&#9;&#9;&#9;&#9;&#9;&#9;&#9;&#9;l-0.9-1.647c20.025-10.952,44.535-22.149,74.496-22.149c29.959,0,54.47,11.197,74.496,22.149L896.88,280.645z"/>
						</g>
						<g>
							<path fill="#FFFFFF" d="M1206.715,246.133c-37.178,0-66.765,17.537-95.379,34.496l-0.956-1.615&#10;&#9;&#9;&#9;&#9;&#9;&#9;&#9;&#9;c28.831-17.088,58.645-34.759,96.335-34.759"/>
						</g>
						<g>
							<path fill="#FFFFFF" d="M918.664,280.629c-28.619-16.962-58.205-34.496-95.379-34.496c-37.177,0-66.764,17.536-95.377,34.494&#10;&#9;&#9;&#9;&#9;&#9;&#9;&#9;&#9;l-0.957-1.615c28.83-17.087,58.643-34.757,96.334-34.757c37.688,0,67.498,17.669,96.327,34.755L918.664,280.629z"/>
						</g>
						<g>
							<path fill="#FFFFFF" d="M1206.715,233.54c-37.178,0-66.765,17.537-95.379,34.497c-7.115,4.217-14.472,8.577-21.84,12.607&#10;&#9;&#9;&#9;&#9;&#9;&#9;&#9;&#9;l-0.899-1.647c7.338-4.015,14.681-8.366,21.782-12.575c28.83-17.089,58.645-34.76,96.336-34.76"/>
						</g>
						<g>
							<path fill="#FFFFFF" d="M940.504,280.645c-7.369-4.03-14.727-8.391-21.842-12.608&#10;&#9;&#9;&#9;&#9;&#9;&#9;&#9;&#9;c-28.613-16.959-58.203-34.496-95.377-34.496c-37.178,0-66.766,17.537-95.38,34.496c-7.115,4.218-14.474,8.578-21.841,12.608&#10;&#9;&#9;&#9;&#9;&#9;&#9;&#9;&#9;l-0.9-1.647c7.339-4.015,14.683-8.366,21.784-12.575c28.831-17.089,58.646-34.76,96.337-34.76&#10;&#9;&#9;&#9;&#9;&#9;&#9;&#9;&#9;c37.689,0,67.502,17.671,96.334,34.759c7.102,4.21,14.445,8.562,21.786,12.576L940.504,280.645z"/>
						</g>
						<g>
							<path fill="#FFFFFF" d="M1206.715,220.949c-37.178,0-66.765,17.536-95.379,34.496c-15.436,9.148-31.396,18.607-48.4,25.25&#10;&#9;&#9;&#9;&#9;&#9;&#9;&#9;&#9;l-0.683-1.748c16.862-6.587,32.755-16.007,48.126-25.117c28.83-17.089,58.645-34.758,96.336-34.758"/>
						</g>
						<g>
							<path fill="#FFFFFF" d="M967.062,280.695c-17.004-6.643-32.963-16.102-48.398-25.249&#10;&#9;&#9;&#9;&#9;&#9;&#9;&#9;&#9;c-28.615-16.96-58.202-34.497-95.379-34.497c-37.178,0-66.764,17.536-95.377,34.496&#10;&#9;&#9;&#9;&#9;&#9;&#9;&#9;&#9;c-15.335,9.087-31.191,18.485-48.067,25.119l-0.687-1.748c16.736-6.577,32.525-15.937,47.796-24.987&#10;&#9;&#9;&#9;&#9;&#9;&#9;&#9;&#9;c28.831-17.088,58.644-34.757,96.335-34.757s67.505,17.671,96.337,34.758c15.37,9.11,31.262,18.53,48.124,25.117&#10;&#9;&#9;&#9;&#9;&#9;&#9;&#9;&#9;L967.062,280.695z"/>
						</g>
						<g>
							<path fill="#FFFFFF" d="M1015,277.611c-37.691,0-67.505-17.67-96.336-34.758c-28.615-16.959-58.202-34.497-95.379-34.497&#10;&#9;&#9;&#9;&#9;&#9;&#9;&#9;&#9;c-37.178,0-66.766,17.536-95.379,34.496c-15.334,9.089-31.189,18.486-48.065,25.12l-0.687-1.747&#10;&#9;&#9;&#9;&#9;&#9;&#9;&#9;&#9;c16.735-6.579,32.525-15.937,47.794-24.987c28.832-17.088,58.646-34.759,96.337-34.759s67.505,17.671,96.336,34.759&#10;&#9;&#9;&#9;&#9;&#9;&#9;&#9;&#9;c28.613,16.959,58.201,34.496,95.379,34.496s66.766-17.537,95.379-34.496c28.83-17.088,58.643-34.759,96.336-34.759v1.877&#10;&#9;&#9;&#9;&#9;&#9;&#9;&#9;&#9;c-37.178,0-66.766,17.538-95.379,34.497C1082.504,259.941,1052.691,277.611,1015,277.611z"/>
						</g>
						<g>
							<path fill="#FFFFFF" d="M1015,265.021c-37.691,0-67.505-17.671-96.336-34.76c-28.615-16.959-58.202-34.497-95.379-34.497&#10;&#9;&#9;&#9;&#9;&#9;&#9;&#9;&#9;c-37.178,0-66.765,17.538-95.378,34.497c-15.334,9.089-31.19,18.487-48.066,25.12l-0.687-1.747&#10;&#9;&#9;&#9;&#9;&#9;&#9;&#9;&#9;c16.735-6.579,32.525-15.938,47.795-24.987c28.831-17.089,58.645-34.76,96.336-34.76s67.505,17.671,96.336,34.76&#10;&#9;&#9;&#9;&#9;&#9;&#9;&#9;&#9;c28.613,16.959,58.201,34.496,95.379,34.496s66.766-17.537,95.379-34.496c28.83-17.089,58.643-34.76,96.336-34.76v1.877&#10;&#9;&#9;&#9;&#9;&#9;&#9;&#9;&#9;c-37.178,0-66.765,17.538-95.379,34.497C1082.504,247.35,1052.691,265.021,1015,265.021z"/>
						</g>
						<g>
							<path fill="#FFFFFF" d="M1015,252.429c-37.691,0-67.505-17.671-96.336-34.758c-28.615-16.96-58.202-34.497-95.379-34.497&#10;&#9;&#9;&#9;&#9;&#9;&#9;&#9;&#9;c-37.178,0-66.765,17.536-95.377,34.495c-15.335,9.088-31.191,18.486-48.067,25.12l-0.687-1.748&#10;&#9;&#9;&#9;&#9;&#9;&#9;&#9;&#9;c16.736-6.577,32.525-15.937,47.796-24.987c28.831-17.088,58.644-34.757,96.335-34.757s67.505,17.67,96.336,34.758&#10;&#9;&#9;&#9;&#9;&#9;&#9;&#9;&#9;c28.613,16.959,58.201,34.497,95.379,34.497s66.766-17.538,95.379-34.497c28.83-17.088,58.643-34.758,96.336-34.758v1.877&#10;&#9;&#9;&#9;&#9;&#9;&#9;&#9;&#9;c-37.178,0-66.766,17.537-95.379,34.497C1082.504,234.758,1052.691,252.429,1015,252.429z"/>
						</g>
						<g>
							<path fill="#FFFFFF" d="M1015,239.836c-37.691,0-67.505-17.671-96.336-34.758c-28.615-16.96-58.202-34.497-95.379-34.497&#10;&#9;&#9;&#9;&#9;&#9;&#9;&#9;&#9;c-37.178,0-66.766,17.536-95.379,34.495c-15.334,9.089-31.189,18.487-48.065,25.121l-0.687-1.748&#10;&#9;&#9;&#9;&#9;&#9;&#9;&#9;&#9;c16.735-6.578,32.525-15.936,47.794-24.987c28.832-17.087,58.646-34.758,96.337-34.758s67.505,17.671,96.336,34.758&#10;&#9;&#9;&#9;&#9;&#9;&#9;&#9;&#9;c28.613,16.96,58.201,34.497,95.379,34.497s66.766-17.537,95.379-34.497c28.83-17.087,58.643-34.758,96.336-34.758v1.877&#10;&#9;&#9;&#9;&#9;&#9;&#9;&#9;&#9;c-37.178,0-66.766,17.537-95.379,34.497C1082.504,222.165,1052.691,239.836,1015,239.836z"/>
						</g>
						<g>
							<path fill="#FFFFFF" d="M1015,227.244c-37.691,0-67.505-17.67-96.336-34.758c-28.615-16.959-58.202-34.495-95.379-34.495&#10;&#9;&#9;&#9;&#9;&#9;&#9;&#9;&#9;s-66.764,17.536-95.377,34.494c-15.334,9.089-31.191,18.486-48.067,25.12l-0.687-1.747&#10;&#9;&#9;&#9;&#9;&#9;&#9;&#9;&#9;c16.736-6.578,32.525-15.937,47.797-24.987c28.83-17.088,58.643-34.758,96.334-34.758s67.505,17.67,96.336,34.759&#10;&#9;&#9;&#9;&#9;&#9;&#9;&#9;&#9;c28.613,16.959,58.201,34.495,95.379,34.495s66.766-17.536,95.379-34.495c28.83-17.089,58.643-34.759,96.336-34.759v1.878&#10;&#9;&#9;&#9;&#9;&#9;&#9;&#9;&#9;c-37.178,0-66.766,17.536-95.379,34.495C1082.504,209.574,1052.691,227.244,1015,227.244z"/>
						</g>
						<g>
							<path fill="#FFFFFF" d="M1015,214.653c-37.691,0-67.505-17.671-96.336-34.759c-28.615-16.959-58.202-34.496-95.379-34.496&#10;&#9;&#9;&#9;&#9;&#9;&#9;&#9;&#9;c-37.178,0-66.766,17.536-95.379,34.495c-15.334,9.089-31.189,18.487-48.065,25.121l-0.687-1.748&#10;&#9;&#9;&#9;&#9;&#9;&#9;&#9;&#9;c16.735-6.579,32.525-15.937,47.794-24.987c28.832-17.088,58.646-34.758,96.337-34.758s67.505,17.67,96.336,34.758&#10;&#9;&#9;&#9;&#9;&#9;&#9;&#9;&#9;c28.613,16.959,58.201,34.497,95.379,34.497s66.766-17.538,95.379-34.497c28.83-17.088,58.643-34.758,96.336-34.758v1.877&#10;&#9;&#9;&#9;&#9;&#9;&#9;&#9;&#9;c-37.178,0-66.766,17.537-95.379,34.496C1082.504,196.982,1052.691,214.653,1015,214.653z"/>
						</g>
						<g>
							<path fill="#FFFFFF" d="M1015,202.061c-37.691,0-67.505-17.671-96.336-34.759c-28.615-16.959-58.202-34.495-95.379-34.495&#10;&#9;&#9;&#9;&#9;&#9;&#9;&#9;&#9;s-66.764,17.536-95.377,34.494c-15.334,9.089-31.191,18.487-48.067,25.121l-0.687-1.748&#10;&#9;&#9;&#9;&#9;&#9;&#9;&#9;&#9;c16.736-6.577,32.525-15.937,47.797-24.987c28.83-17.089,58.643-34.757,96.334-34.757s67.505,17.669,96.336,34.758&#10;&#9;&#9;&#9;&#9;&#9;&#9;&#9;&#9;c28.613,16.96,58.201,34.496,95.379,34.496s66.766-17.536,95.379-34.496c28.83-17.089,58.643-34.758,96.336-34.758v1.877&#10;&#9;&#9;&#9;&#9;&#9;&#9;&#9;&#9;c-37.178,0-66.766,17.536-95.379,34.495C1082.504,184.39,1052.691,202.061,1015,202.061z"/>
						</g>
						<g>
							<path fill="#FFFFFF" d="M1015,189.469c-37.691,0-67.505-17.67-96.336-34.758c-28.615-16.959-58.202-34.497-95.379-34.497&#10;&#9;&#9;&#9;&#9;&#9;&#9;&#9;&#9;c-37.178,0-66.765,17.536-95.378,34.497c-15.334,9.088-31.19,18.485-48.066,25.119l-0.687-1.748&#10;&#9;&#9;&#9;&#9;&#9;&#9;&#9;&#9;c16.735-6.578,32.525-15.936,47.795-24.987c28.831-17.087,58.645-34.758,96.336-34.758s67.505,17.671,96.336,34.758&#10;&#9;&#9;&#9;&#9;&#9;&#9;&#9;&#9;c28.613,16.961,58.201,34.497,95.379,34.497s66.766-17.536,95.379-34.497c28.83-17.087,58.643-34.758,96.336-34.758v1.877&#10;&#9;&#9;&#9;&#9;&#9;&#9;&#9;&#9;c-37.178,0-66.766,17.538-95.379,34.497C1082.504,171.799,1052.691,189.469,1015,189.469z"/>
						</g>
						<g>
							<path fill="#FFFFFF" d="M1015,176.878c-37.691,0-67.505-17.671-96.336-34.759c-28.615-16.959-58.202-34.496-95.379-34.496&#10;&#9;&#9;&#9;&#9;&#9;&#9;&#9;&#9;c-37.178,0-66.765,17.537-95.378,34.496c-15.334,9.088-31.19,18.486-48.066,25.119l-0.687-1.747&#10;&#9;&#9;&#9;&#9;&#9;&#9;&#9;&#9;c16.735-6.579,32.525-15.937,47.795-24.987c28.831-17.088,58.645-34.759,96.336-34.759s67.505,17.671,96.336,34.759&#10;&#9;&#9;&#9;&#9;&#9;&#9;&#9;&#9;C948.234,157.463,977.822,175,1015,175s66.766-17.537,95.379-34.496c28.83-17.088,58.643-34.759,96.336-34.759v1.878&#10;&#9;&#9;&#9;&#9;&#9;&#9;&#9;&#9;c-37.178,0-66.766,17.537-95.379,34.496C1082.504,159.207,1052.691,176.878,1015,176.878z"/>
						</g>
						<g>
							<path fill="#FFFFFF" d="M1015,164.286c-37.691,0-67.505-17.671-96.336-34.76c-28.615-16.959-58.202-34.495-95.379-34.495&#10;&#9;&#9;&#9;&#9;&#9;&#9;&#9;&#9;c-37.178,0-66.765,17.536-95.378,34.495c-15.334,9.089-31.19,18.486-48.066,25.121l-0.687-1.748&#10;&#9;&#9;&#9;&#9;&#9;&#9;&#9;&#9;c16.735-6.578,32.525-15.938,47.795-24.988c28.831-17.088,58.645-34.757,96.336-34.757s67.505,17.669,96.336,34.758&#10;&#9;&#9;&#9;&#9;&#9;&#9;&#9;&#9;c28.613,16.961,58.201,34.497,95.379,34.497s66.766-17.536,95.379-34.497c28.83-17.089,58.643-34.758,96.336-34.758v1.877&#10;&#9;&#9;&#9;&#9;&#9;&#9;&#9;&#9;c-37.178,0-66.766,17.536-95.379,34.495C1082.504,146.615,1052.691,164.286,1015,164.286z"/>
						</g>
						<g>
							<path fill="#FFFFFF" d="M1015,151.694c-37.691,0-67.505-17.67-96.336-34.759c-28.615-16.96-58.202-34.496-95.379-34.496&#10;&#9;&#9;&#9;&#9;&#9;&#9;&#9;&#9;c-37.178,0-66.765,17.536-95.378,34.494c-15.334,9.089-31.19,18.487-48.066,25.121l-0.687-1.746&#10;&#9;&#9;&#9;&#9;&#9;&#9;&#9;&#9;c16.736-6.579,32.525-15.938,47.796-24.989c28.831-17.088,58.644-34.757,96.335-34.757s67.505,17.669,96.336,34.758&#10;&#9;&#9;&#9;&#9;&#9;&#9;&#9;&#9;c28.613,16.96,58.201,34.497,95.379,34.497s66.766-17.537,95.379-34.497c28.83-17.089,58.643-34.758,96.336-34.758v1.877&#10;&#9;&#9;&#9;&#9;&#9;&#9;&#9;&#9;c-37.178,0-66.766,17.536-95.379,34.496C1082.504,134.024,1052.691,151.694,1015,151.694z"/>
						</g>
						<g>
							<path fill="#FFFFFF" d="M1015,139.102c-37.691,0-67.505-17.669-96.336-34.758c-28.615-16.959-58.202-34.497-95.379-34.497&#10;&#9;&#9;&#9;&#9;&#9;&#9;&#9;&#9;c-37.178,0-66.765,17.538-95.378,34.496c-15.334,9.089-31.19,18.486-48.066,25.119l-0.687-1.746&#10;&#9;&#9;&#9;&#9;&#9;&#9;&#9;&#9;c16.735-6.579,32.525-15.938,47.795-24.987c28.831-17.088,58.645-34.759,96.336-34.759s67.505,17.671,96.336,34.76&#10;&#9;&#9;&#9;&#9;&#9;&#9;&#9;&#9;c28.613,16.958,58.201,34.495,95.379,34.495s66.766-17.537,95.379-34.495c28.83-17.089,58.643-34.76,96.336-34.76v1.877&#10;&#9;&#9;&#9;&#9;&#9;&#9;&#9;&#9;c-37.178,0-66.766,17.538-95.379,34.497C1082.504,121.433,1052.691,139.102,1015,139.102z"/>
						</g>
						<g>
							<path fill="#FFFFFF" d="M1015,126.512c-37.691,0-67.505-17.671-96.336-34.76c-28.615-16.959-58.202-34.495-95.379-34.495&#10;&#9;&#9;&#9;&#9;&#9;&#9;&#9;&#9;c-37.178,0-66.765,17.535-95.378,34.495c-15.334,9.088-31.19,18.486-48.066,25.119l-0.687-1.746&#10;&#9;&#9;&#9;&#9;&#9;&#9;&#9;&#9;c16.735-6.58,32.525-15.938,47.795-24.988c28.831-17.088,58.645-34.757,96.336-34.757s67.505,17.669,96.336,34.758&#10;&#9;&#9;&#9;&#9;&#9;&#9;&#9;&#9;c28.613,16.959,58.201,34.497,95.379,34.497s66.766-17.538,95.379-34.497c28.83-17.089,58.643-34.758,96.336-34.758v1.877&#10;&#9;&#9;&#9;&#9;&#9;&#9;&#9;&#9;c-37.178,0-66.766,17.536-95.379,34.495C1082.504,108.841,1052.691,126.512,1015,126.512z"/>
						</g>
						<g>
							<path fill="#FFFFFF" d="M1015,113.919c-37.691,0-67.505-17.671-96.336-34.76c-28.615-16.958-58.202-34.495-95.379-34.495&#10;&#9;&#9;&#9;&#9;&#9;&#9;&#9;&#9;c-37.178,0-66.766,17.537-95.379,34.495c-15.334,9.089-31.189,18.487-48.065,25.12l-0.687-1.747&#10;&#9;&#9;&#9;&#9;&#9;&#9;&#9;&#9;c16.735-6.578,32.525-15.937,47.794-24.987c28.832-17.089,58.646-34.758,96.337-34.758s67.505,17.669,96.336,34.759&#10;&#9;&#9;&#9;&#9;&#9;&#9;&#9;&#9;c28.613,16.959,58.201,34.496,95.379,34.496s66.766-17.537,95.379-34.496c28.83-17.09,58.643-34.759,96.336-34.759v1.877&#10;&#9;&#9;&#9;&#9;&#9;&#9;&#9;&#9;c-37.178,0-66.766,17.537-95.379,34.495C1082.504,96.248,1052.691,113.919,1015,113.919z"/>
						</g>
						<g>
							<path fill="#FFFFFF" d="M1015,101.327c-37.691,0-67.505-17.67-96.336-34.759c-28.615-16.96-58.202-34.497-95.379-34.497&#10;&#9;&#9;&#9;&#9;&#9;&#9;&#9;&#9;c-37.178,0-66.766,17.537-95.379,34.497c-15.334,9.089-31.189,18.485-48.065,25.12l-0.687-1.747&#10;&#9;&#9;&#9;&#9;&#9;&#9;&#9;&#9;c16.735-6.578,32.525-15.937,47.795-24.987c28.831-17.089,58.645-34.76,96.336-34.76s67.505,17.671,96.336,34.76&#10;&#9;&#9;&#9;&#9;&#9;&#9;&#9;&#9;C948.234,81.913,977.822,99.45,1015,99.45s66.766-17.537,95.379-34.496c28.83-17.089,58.643-34.76,96.336-34.76v1.877&#10;&#9;&#9;&#9;&#9;&#9;&#9;&#9;&#9;c-37.178,0-66.766,17.537-95.379,34.497C1082.504,83.657,1052.691,101.327,1015,101.327z"/>
						</g>
						<g>
							<path fill="#FFFFFF" d="M1015,88.734c-37.691,0-67.505-17.669-96.336-34.758c-28.615-16.958-58.202-34.495-95.379-34.495&#10;&#9;&#9;&#9;&#9;&#9;&#9;&#9;&#9;c-37.178,0-66.766,17.536-95.379,34.495c-15.334,9.088-31.189,18.485-48.065,25.119l-0.687-1.747&#10;&#9;&#9;&#9;&#9;&#9;&#9;&#9;&#9;c16.735-6.578,32.525-15.937,47.795-24.987c28.831-17.088,58.645-34.758,96.336-34.758s67.505,17.67,96.336,34.759&#10;&#9;&#9;&#9;&#9;&#9;&#9;&#9;&#9;c28.613,16.959,58.201,34.495,95.379,34.495s66.766-17.536,95.379-34.495c28.83-17.089,58.643-34.759,96.336-34.759v1.878&#10;&#9;&#9;&#9;&#9;&#9;&#9;&#9;&#9;c-37.178,0-66.766,17.537-95.379,34.495C1082.504,71.065,1052.691,88.734,1015,88.734z"/>
						</g>
						<g>
							<path fill="#FFFFFF" d="M1015,76.144c-37.691,0-67.505-17.67-96.336-34.759c-28.615-16.959-58.202-34.496-95.379-34.496&#10;&#9;&#9;&#9;&#9;&#9;&#9;&#9;&#9;c-37.178,0-66.765,17.537-95.378,34.495c-15.334,9.089-31.19,18.487-48.066,25.121l-0.687-1.747&#10;&#9;&#9;&#9;&#9;&#9;&#9;&#9;&#9;c16.735-6.58,32.525-15.938,47.795-24.988c28.831-17.088,58.645-34.758,96.336-34.758s67.505,17.67,96.336,34.759&#10;&#9;&#9;&#9;&#9;&#9;&#9;&#9;&#9;c28.613,16.96,58.201,34.496,95.379,34.496s66.766-17.536,95.379-34.496c28.83-17.089,58.643-34.759,96.336-34.759v1.877&#10;&#9;&#9;&#9;&#9;&#9;&#9;&#9;&#9;c-37.178,0-66.766,17.537-95.379,34.496C1082.504,58.474,1052.691,76.144,1015,76.144z"/>
						</g>
						<g>
							<path fill="#FFFFFF" d="M1015,63.552c-37.691,0-67.505-17.671-96.336-34.758c-28.615-16.961-58.202-34.497-95.379-34.497&#10;&#9;&#9;&#9;&#9;&#9;&#9;&#9;&#9;c-37.178,0-66.766,17.536-95.379,34.497c-15.334,9.087-31.189,18.485-48.065,25.119l-0.687-1.748&#10;&#9;&#9;&#9;&#9;&#9;&#9;&#9;&#9;c16.735-6.577,32.525-15.936,47.794-24.987C755.78,10.091,785.594-7.58,823.285-7.58s67.505,17.671,96.336,34.758&#10;&#9;&#9;&#9;&#9;&#9;&#9;&#9;&#9;c28.613,16.961,58.201,34.497,95.379,34.497s66.766-17.536,95.379-34.497c28.83-17.087,58.643-34.758,96.336-34.758v1.877&#10;&#9;&#9;&#9;&#9;&#9;&#9;&#9;&#9;c-37.178,0-66.766,17.536-95.379,34.497C1082.504,45.881,1052.691,63.552,1015,63.552z"/>
						</g>
						<g>
							<path fill="#FFFFFF" d="M1015,50.961c-37.691,0-67.505-17.67-96.336-34.76c-28.615-16.958-58.202-34.496-95.379-34.496&#10;&#9;&#9;&#9;&#9;&#9;&#9;&#9;&#9;s-66.764,17.537-95.377,34.496c-15.334,9.088-31.191,18.485-48.067,25.119l-0.687-1.748&#10;&#9;&#9;&#9;&#9;&#9;&#9;&#9;&#9;c16.736-6.577,32.527-15.936,47.797-24.987c28.83-17.087,58.643-34.757,96.334-34.757s67.505,17.67,96.336,34.76&#10;&#9;&#9;&#9;&#9;&#9;&#9;&#9;&#9;c28.613,16.958,58.201,34.495,95.379,34.495s66.766-17.537,95.379-34.495c28.83-17.09,58.643-34.76,96.336-34.76v1.877&#10;&#9;&#9;&#9;&#9;&#9;&#9;&#9;&#9;c-37.178,0-66.766,17.538-95.379,34.496C1082.504,33.291,1052.691,50.961,1015,50.961z"/>
						</g>
						<g>
							<path fill="#FFFFFF" d="M1015,38.368c-37.691,0-67.505-17.67-96.336-34.758c-28.615-16.96-58.202-34.496-95.379-34.496&#10;&#9;&#9;&#9;&#9;&#9;&#9;&#9;&#9;c-37.178,0-66.766,17.536-95.379,34.496c-15.334,9.088-31.189,18.486-48.065,25.12l-0.687-1.748&#10;&#9;&#9;&#9;&#9;&#9;&#9;&#9;&#9;c16.735-6.578,32.525-15.937,47.794-24.987c28.831-17.088,58.645-34.758,96.337-34.758c37.691,0,67.505,17.67,96.336,34.758&#10;&#9;&#9;&#9;&#9;&#9;&#9;&#9;&#9;C948.234,18.954,977.822,36.49,1015,36.49s66.766-17.536,95.379-34.495c28.83-17.088,58.643-34.758,96.336-34.758v1.877&#10;&#9;&#9;&#9;&#9;&#9;&#9;&#9;&#9;c-37.178,0-66.766,17.536-95.379,34.496C1082.504,20.698,1052.691,38.368,1015,38.368z"/>
						</g>
						<g>
							<path fill="#FFFFFF" d="M1015,25.776c-37.691,0-67.505-17.671-96.336-34.759c-28.615-16.959-58.202-34.495-95.379-34.495&#10;&#9;&#9;&#9;&#9;&#9;&#9;&#9;&#9;c-37.178,0-66.765,17.535-95.378,34.495c-15.334,9.088-31.19,18.486-48.066,25.12l-0.687-1.748&#10;&#9;&#9;&#9;&#9;&#9;&#9;&#9;&#9;c16.735-6.577,32.525-15.937,47.795-24.987c28.831-17.088,58.645-34.757,96.336-34.757s67.505,17.669,96.336,34.757&#10;&#9;&#9;&#9;&#9;&#9;&#9;&#9;&#9;C948.234,6.363,977.822,23.899,1015,23.899s66.766-17.536,95.379-34.497c28.83-17.088,58.643-34.757,96.336-34.757v1.877&#10;&#9;&#9;&#9;&#9;&#9;&#9;&#9;&#9;c-37.178,0-66.766,17.536-95.379,34.495C1082.504,8.105,1052.691,25.776,1015,25.776z"/>
						</g>
						<g>
							<path fill="#FFFFFF" d="M1015,13.185c-37.691,0-67.505-17.669-96.336-34.759c-28.615-16.958-58.202-34.496-95.379-34.496&#10;&#9;&#9;&#9;&#9;&#9;&#9;&#9;&#9;c-37.178,0-66.765,17.538-95.378,34.496c-15.334,9.089-31.19,18.485-48.066,25.119l-0.687-1.746&#10;&#9;&#9;&#9;&#9;&#9;&#9;&#9;&#9;C695.891-4.78,711.68-14.14,726.95-23.189c28.831-17.088,58.644-34.758,96.335-34.758s67.505,17.67,96.336,34.76&#10;&#9;&#9;&#9;&#9;&#9;&#9;&#9;&#9;C948.234-6.229,977.822,11.308,1015,11.308s66.766-17.537,95.379-34.495c28.83-17.09,58.643-34.76,96.336-34.76v1.877&#10;&#9;&#9;&#9;&#9;&#9;&#9;&#9;&#9;c-37.178,0-66.766,17.538-95.379,34.496C1082.504-4.484,1052.691,13.185,1015,13.185z"/>
						</g>
						<g>
							<path fill="#FFFFFF" d="M1015,0.592c-37.691,0-67.505-17.669-96.336-34.757c-28.615-16.96-58.202-34.496-95.379-34.496&#10;&#9;&#9;&#9;&#9;&#9;&#9;&#9;&#9;c-37.178,0-66.765,17.536-95.378,34.495c-15.334,9.089-31.19,18.487-48.066,25.12l-0.687-1.747&#10;&#9;&#9;&#9;&#9;&#9;&#9;&#9;&#9;c16.735-6.579,32.525-15.938,47.795-24.987c28.831-17.088,58.645-34.759,96.336-34.759s67.505,17.671,96.336,34.759&#10;&#9;&#9;&#9;&#9;&#9;&#9;&#9;&#9;C948.234-18.821,977.822-1.285,1015-1.285s66.766-17.536,95.379-34.495c28.83-17.088,58.643-34.759,96.336-34.759v1.878&#10;&#9;&#9;&#9;&#9;&#9;&#9;&#9;&#9;c-37.178,0-66.766,17.536-95.379,34.496C1082.504-17.077,1052.691,0.592,1015,0.592z"/>
						</g>
						<g>
							<path fill="#FFFFFF" d="M1015-11.998c-37.691,0-67.505-17.671-96.336-34.76c-28.615-16.959-58.202-34.496-95.379-34.496&#10;&#9;&#9;&#9;&#9;&#9;&#9;&#9;&#9;c-37.178,0-66.766,17.537-95.379,34.496c-15.334,9.088-31.189,18.486-48.065,25.12l-0.687-1.748&#10;&#9;&#9;&#9;&#9;&#9;&#9;&#9;&#9;c16.735-6.577,32.525-15.937,47.794-24.987c28.832-17.088,58.646-34.758,96.337-34.758s67.505,17.67,96.336,34.759&#10;&#9;&#9;&#9;&#9;&#9;&#9;&#9;&#9;c28.613,16.96,58.201,34.497,95.379,34.497s66.766-17.537,95.379-34.497c28.83-17.089,58.643-34.759,96.336-34.759v1.877&#10;&#9;&#9;&#9;&#9;&#9;&#9;&#9;&#9;c-37.178,0-66.766,17.537-95.379,34.496C1082.504-29.669,1052.691-11.998,1015-11.998z"/>
						</g>
						<g>
							<path fill="#FFFFFF" d="M1015-24.591c-37.691,0-67.505-17.669-96.336-34.758c-28.615-16.96-58.202-34.497-95.379-34.497&#10;&#9;&#9;&#9;&#9;&#9;&#9;&#9;&#9;c-37.178,0-66.765,17.537-95.378,34.495c-15.334,9.089-31.19,18.487-48.066,25.12l-0.687-1.747&#10;&#9;&#9;&#9;&#9;&#9;&#9;&#9;&#9;c16.735-6.578,32.525-15.938,47.795-24.987c28.831-17.088,58.645-34.758,96.336-34.758s67.505,17.67,96.336,34.76&#10;&#9;&#9;&#9;&#9;&#9;&#9;&#9;&#9;c28.613,16.958,58.201,34.495,95.379,34.495s66.766-17.537,95.379-34.495c28.83-17.09,58.643-34.76,96.336-34.76v1.877&#10;&#9;&#9;&#9;&#9;&#9;&#9;&#9;&#9;c-37.178,0-66.766,17.537-95.379,34.497C1082.504-42.26,1052.691-24.591,1015-24.591z"/>
						</g>
						<g>
							<path fill="#FFFFFF" d="M1015-37.181c-37.691,0-67.505-17.672-96.336-34.76c-28.615-16.96-58.202-34.497-95.379-34.497&#10;&#9;&#9;&#9;&#9;&#9;&#9;&#9;&#9;c-37.178,0-66.765,17.537-95.378,34.496c-15.334,9.089-31.19,18.486-48.066,25.12l-0.687-1.747&#10;&#9;&#9;&#9;&#9;&#9;&#9;&#9;&#9;c16.736-6.578,32.525-15.937,47.796-24.987c28.831-17.089,58.644-34.759,96.335-34.759s67.505,17.671,96.336,34.759&#10;&#9;&#9;&#9;&#9;&#9;&#9;&#9;&#9;c28.613,16.96,58.201,34.497,95.379,34.497s66.766-17.537,95.379-34.497c28.83-17.088,58.643-34.759,96.336-34.759v1.877&#10;&#9;&#9;&#9;&#9;&#9;&#9;&#9;&#9;c-37.178,0-66.766,17.537-95.379,34.497C1082.504-54.853,1052.691-37.181,1015-37.181z"/>
						</g>
						<g>
							<path fill="#FFFFFF" d="M1015-49.773c-37.691,0-67.505-17.67-96.336-34.76c-28.615-16.959-58.202-34.495-95.379-34.495&#10;&#9;&#9;&#9;&#9;&#9;&#9;&#9;&#9;c-37.178,0-66.765,17.536-95.378,34.495c-15.334,9.088-31.19,18.486-48.066,25.119l-0.687-1.746&#10;&#9;&#9;&#9;&#9;&#9;&#9;&#9;&#9;c16.735-6.578,32.525-15.938,47.795-24.988c28.831-17.088,58.645-34.758,96.336-34.758s67.505,17.67,96.336,34.76&#10;&#9;&#9;&#9;&#9;&#9;&#9;&#9;&#9;C948.234-69.188,977.822-51.65,1015-51.65s66.766-17.538,95.379-34.496c28.83-17.09,58.643-34.76,96.336-34.76v1.878&#10;&#9;&#9;&#9;&#9;&#9;&#9;&#9;&#9;c-37.178,0-66.766,17.536-95.379,34.495C1082.504-67.443,1052.691-49.773,1015-49.773z"/>
						</g>
						<g>
							<path fill="#FFFFFF" d="M1015-62.366c-37.693,0-67.509-17.671-96.341-34.76c-15.369-9.109-31.261-18.528-48.12-25.114&#10;&#9;&#9;&#9;&#9;&#9;&#9;&#9;&#9;l0.683-1.75c17.002,6.643,32.962,16.102,48.396,25.25c28.615,16.96,58.205,34.497,95.383,34.497s66.766-17.536,95.379-34.496&#10;&#9;&#9;&#9;&#9;&#9;&#9;&#9;&#9;c15.434-9.147,31.395-18.607,48.398-25.251l0.683,1.75c-16.86,6.586-32.755,16.006-48.124,25.115&#10;&#9;&#9;&#9;&#9;&#9;&#9;&#9;&#9;C1082.504-80.036,1052.691-62.366,1015-62.366z"/>
						</g>
						<g>
							<path fill="#FFFFFF" d="M679.841-72.005l-0.687-1.747c16.735-6.579,32.525-15.938,47.795-24.988&#10;&#9;&#9;&#9;&#9;&#9;&#9;&#9;&#9;c15.436-9.147,31.395-18.607,48.397-25.25l0.683,1.75c-16.859,6.586-32.753,16.006-48.122,25.115&#10;&#9;&#9;&#9;&#9;&#9;&#9;&#9;&#9;C712.572-88.037,696.717-78.639,679.841-72.005z"/>
						</g>
						<g>
							<path fill="#FFFFFF" d="M1015-74.957c-37.693,0-67.506-17.671-96.338-34.76c-7.102-4.209-14.443-8.561-21.782-12.574&#10;&#9;&#9;&#9;&#9;&#9;&#9;&#9;&#9;l0.901-1.648c7.366,4.03,14.723,8.391,21.838,12.607c28.613,16.961,58.203,34.498,95.381,34.498s66.766-17.537,95.38-34.497&#10;&#9;&#9;&#9;&#9;&#9;&#9;&#9;&#9;c7.115-4.217,14.472-8.577,21.839-12.608l0.9,1.648c-7.338,4.014-14.681,8.366-21.782,12.574&#10;&#9;&#9;&#9;&#9;&#9;&#9;&#9;&#9;C1082.504-92.628,1052.691-74.957,1015-74.957z"/>
						</g>
						<g>
							<path fill="#FFFFFF" d="M679.841-84.597l-0.687-1.747c16.734-6.578,32.522-15.936,47.791-24.985&#10;&#9;&#9;&#9;&#9;&#9;&#9;&#9;&#9;c7.115-4.218,14.474-8.579,21.844-12.61l0.9,1.648c-7.341,4.015-14.686,8.367-21.787,12.576&#10;&#9;&#9;&#9;&#9;&#9;&#9;&#9;&#9;C712.57-100.627,696.715-91.23,679.841-84.597z"/>
						</g>
						<g>
							<path fill="#FFFFFF" d="M1015-87.549c-37.691,0-67.504-17.67-96.336-34.76l0.955-1.613&#10;&#9;&#9;&#9;&#9;&#9;&#9;&#9;&#9;c28.615,16.959,58.205,34.496,95.381,34.496s66.762-17.535,95.373-34.494l0.963,1.611&#10;&#9;&#9;&#9;&#9;&#9;&#9;&#9;&#9;C1082.501-105.217,1052.688-87.549,1015-87.549z"/>
						</g>
						<g>
							<path fill="#FFFFFF" d="M679.841-97.188l-0.687-1.748c16.727-6.575,32.508-15.928,47.77-24.973l0.981,1.6&#10;&#9;&#9;&#9;&#9;&#9;&#9;&#9;&#9;C712.555-113.211,696.707-103.818,679.841-97.188z"/>
						</g>
						<g>
							<path fill="#FFFFFF" d="M1015-100.142c-29.961,0-54.471-11.196-74.496-22.149l0.901-1.648&#10;&#9;&#9;&#9;&#9;&#9;&#9;&#9;&#9;c19.815,10.84,44.058,21.921,73.595,21.921c29.539,0,53.779-11.081,73.597-21.921l0.899,1.648&#10;&#9;&#9;&#9;&#9;&#9;&#9;&#9;&#9;C1069.473-111.338,1044.96-100.142,1015-100.142z"/>
						</g>
						<g>
							<path fill="#FFFFFF" d="M679.841-109.78l-0.687-1.747c8.053-3.165,16.318-7.109,26.01-12.411l0.9,1.646&#10;&#9;&#9;&#9;&#9;&#9;&#9;&#9;&#9;C696.302-116.95,687.969-112.975,679.841-109.78z"/>
						</g>
						<g>
							<path fill="#FFFFFF" d="M1015-112.732c-15.879,0-31.559-3.111-47.938-9.508l0.684-1.75&#10;&#9;&#9;&#9;&#9;&#9;&#9;&#9;&#9;c16.156,6.312,31.613,9.381,47.254,9.381c15.639,0,31.097-3.068,47.253-9.381l0.683,1.75&#10;&#9;&#9;&#9;&#9;&#9;&#9;&#9;&#9;C1046.559-115.844,1030.879-112.732,1015-112.732z"/>
						</g>
					</g>
				</g>
			</g>
			
				<linearGradient id="SVGID_9_" gradientUnits="userSpaceOnUse" x1="428.1743" y1="105.0449" x2="467.493" y2="1022.4861" gradientTransform="matrix(0.9989 -0.0474 0.0474 0.9989 -27.0586 22.603)">
				<stop offset="0" style="stop-color:#ACFFFE"/>
				<stop offset="0.1842" style="stop-color:#A4FBFD"/>
				<stop offset="0.4735" style="stop-color:#8DF2FA"/>
				<stop offset="0.83" style="stop-color:#69E2F5"/>
				<stop offset="1" style="stop-color:#55D9F2"/>
			</linearGradient>
			<path opacity="0.7" clip-path="url(#SVGID_2_)" fill="url(#SVGID_9_)" d="M-181.135,177.874c0,0,205.081-45.781,364.176,141.905&#10;&#9;&#9;&#9;&#9;c159.095,187.686,180.064,249.768,280.813,284.031c100.749,34.265,236.321,42.846,301.098,141.896&#10;&#9;&#9;&#9;&#9;c64.775,99.05,88.449,218.074,341.898,242.084l-1237.729,58.767L-181.135,177.874z"/>
			
				<linearGradient id="SVGID_10_" gradientUnits="userSpaceOnUse" x1="109.0005" y1="56.6611" x2="1490.7139" y2="56.6611" gradientTransform="matrix(0.9795 0.2015 -0.2015 0.9795 44.8638 -150.3643)">
				<stop offset="0" style="stop-color:#43EFFE"/>
				<stop offset="0.0955" style="stop-color:#4AE7FA"/>
				<stop offset="0.2457" style="stop-color:#5CD0EE"/>
				<stop offset="0.4317" style="stop-color:#7BACDA"/>
				<stop offset="0.6463" style="stop-color:#A578BE"/>
				<stop offset="0.8822" style="stop-color:#DA389C"/>
				<stop offset="1" style="stop-color:#F71589"/>
			</linearGradient>
			<path clip-path="url(#SVGID_2_)" fill="url(#SVGID_10_)" d="M159.487-166.596c0,0,74.932,280.865,288.975,302.446&#10;&#9;&#9;&#9;&#9;c214.043,21.581,334.281-16.978,521.367,56.229c187.084,73.208,413.292,164.674,487.894,79.971&#10;&#9;&#9;&#9;&#9;c74.602-84.703,29.819-214.389,29.819-214.389L159.487-166.596z"/>
			<linearGradient id="SVGID_11_" gradientUnits="userSpaceOnUse" x1="333.832" y1="581.8945" x2="717.8706" y2="1175.9541">
				<stop offset="0" style="stop-color:#43EFFE"/>
				<stop offset="0.0955" style="stop-color:#4AE7FA"/>
				<stop offset="0.2457" style="stop-color:#5CD0EE"/>
				<stop offset="0.4317" style="stop-color:#7BACDA"/>
				<stop offset="0.6463" style="stop-color:#A578BE"/>
				<stop offset="0.8822" style="stop-color:#DA389C"/>
				<stop offset="1" style="stop-color:#F71589"/>
			</linearGradient>
			<path clip-path="url(#SVGID_2_)" fill="url(#SVGID_11_)" d="M159,447c0,0,188,60,270,196s106,208,244,232s308,80,330,166H253&#10;&#9;&#9;&#9;&#9;L159,447z"/>
			<linearGradient id="SVGID_12_" gradientUnits="userSpaceOnUse" x1="-0.3496" y1="504.29" x2="359.6865" y2="1248.3647">
				<stop offset="0" style="stop-color:#43EFFE"/>
				<stop offset="0.0955" style="stop-color:#4AE7FA"/>
				<stop offset="0.2457" style="stop-color:#5CD0EE"/>
				<stop offset="0.4317" style="stop-color:#7BACDA"/>
				<stop offset="0.6463" style="stop-color:#A578BE"/>
				<stop offset="0.8822" style="stop-color:#DA389C"/>
				<stop offset="1" style="stop-color:#F71589"/>
			</linearGradient>
			<path clip-path="url(#SVGID_2_)" fill="url(#SVGID_12_)" d="M-83,283c0,0,148,6,282,158s4,250,170,320s110,272,110,272l-530-16&#10;&#9;&#9;&#9;&#9;L-83,283z"/>
			<linearGradient id="SVGID_13_" gradientUnits="userSpaceOnUse" x1="86.5298" y1="383.3628" x2="113.5323" y2="1013.4258">
				<stop offset="0" style="stop-color:#43EFFE"/>
				<stop offset="0.0955" style="stop-color:#4AE7FA"/>
				<stop offset="0.2457" style="stop-color:#5CD0EE"/>
				<stop offset="0.4317" style="stop-color:#7BACDA"/>
				<stop offset="0.6463" style="stop-color:#A578BE"/>
				<stop offset="0.8822" style="stop-color:#DA389C"/>
				<stop offset="1" style="stop-color:#F71589"/>
			</linearGradient>
			<path clip-path="url(#SVGID_2_)" fill="url(#SVGID_13_)" d="M-133,423c0,0,146-64,228,18s-10,234,58,282s150,72,164,126&#10;&#9;&#9;&#9;&#9;s-22,106,18,170l-380-14L-133,423z"/>
			<linearGradient id="SVGID_14_" gradientUnits="userSpaceOnUse" x1="1131.0205" y1="347.2979" x2="1200.0273" y2="1073.3706">
				<stop offset="0" style="stop-color:#43EFFE"/>
				<stop offset="0.0955" style="stop-color:#4AE7FA"/>
				<stop offset="0.2457" style="stop-color:#5CD0EE"/>
				<stop offset="0.4317" style="stop-color:#7BACDA"/>
				<stop offset="0.6463" style="stop-color:#A578BE"/>
				<stop offset="0.8822" style="stop-color:#DA389C"/>
				<stop offset="1" style="stop-color:#F71589"/>
			</linearGradient>
			<path clip-path="url(#SVGID_2_)" fill="url(#SVGID_14_)" d="M1437,531c0,0-58-76-188-62s-303.637-110.381-372-2&#10;&#9;&#9;&#9;&#9;c-82,130,140,156,230,228s0,238,150,314h182L1437,531z"/>
			<linearGradient id="SVGID_15_" gradientUnits="userSpaceOnUse" x1="1195.3203" y1="903.875" x2="1393.3398" y2="312.816">
				<stop offset="0" style="stop-color:#43EFFE"/>
				<stop offset="0.0955" style="stop-color:#4AE7FA"/>
				<stop offset="0.2457" style="stop-color:#5CD0EE"/>
				<stop offset="0.4317" style="stop-color:#7BACDA"/>
				<stop offset="0.6463" style="stop-color:#A578BE"/>
				<stop offset="0.8822" style="stop-color:#DA389C"/>
				<stop offset="1" style="stop-color:#F71589"/>
			</linearGradient>
			<path clip-path="url(#SVGID_2_)" fill="url(#SVGID_15_)" d="M1427,581c0,0-234-114-336-66s74,122,142,174s-4,136,34,192&#10;&#9;&#9;&#9;&#9;s154,112,154,112L1427,581z"/>
			<g clip-path="url(#SVGID_2_)">
				<g>
					<linearGradient id="SVGID_16_" gradientUnits="userSpaceOnUse" x1="1290.1084" y1="685.8682" x2="1285.6467" y2="683.8112">
						<stop offset="0" style="stop-color:#43EFFE"/>
						<stop offset="0.0955" style="stop-color:#4AE7FA"/>
						<stop offset="0.2457" style="stop-color:#5CD0EE"/>
						<stop offset="0.4317" style="stop-color:#7BACDA"/>
						<stop offset="0.6463" style="stop-color:#A578BE"/>
						<stop offset="0.8822" style="stop-color:#DA389C"/>
						<stop offset="1" style="stop-color:#F71589"/>
					</linearGradient>
					<path fill="url(#SVGID_16_)" d="M1287.878,687.34c3.225,0,3.225-5,0-5S1284.653,687.34,1287.878,687.34L1287.878,687.34z"/>
				</g>
			</g>
			
				<linearGradient id="SVGID_17_" gradientUnits="userSpaceOnUse" x1="1006.0762" y1="-58.0986" x2="1457.2313" y2="335.0869" gradientTransform="matrix(0.9795 0.2015 -0.2015 0.9795 44.8638 -150.3643)">
				<stop offset="0" style="stop-color:#ACFFFE"/>
				<stop offset="0.1842" style="stop-color:#A4FBFD"/>
				<stop offset="0.4735" style="stop-color:#8DF2FA"/>
				<stop offset="0.83" style="stop-color:#69E2F5"/>
				<stop offset="1" style="stop-color:#55D9F2"/>
			</linearGradient>
			<path opacity="0.3" clip-path="url(#SVGID_2_)" fill="url(#SVGID_17_)" d="M677.091-63.24c0,0,161.812,56.258,365.247,203.879&#10;&#9;&#9;&#9;&#9;c133.305,96.733,177.667,120.061,366.646,133.238l22.735-187.099L677.091-63.24z"/>
			<path d="M 297 200 A 15 15 0 0 1 282 215 A 15 15 0 0 1 267 200 A 15 15 0 0 1 282 185 A 15 15 0 0 1 297 200 Z" clip-path="url(#SVGID_2_)" fill="#00CFFF"/>
			<linearGradient id="SVGID_18_" gradientUnits="userSpaceOnUse" x1="267" y1="200" x2="297" y2="200">
				<stop offset="0" style="stop-color:#ACFFFE"/>
				<stop offset="0.1842" style="stop-color:#A4FBFD"/>
				<stop offset="0.4735" style="stop-color:#8DF2FA"/>
				<stop offset="0.83" style="stop-color:#69E2F5"/>
				<stop offset="1" style="stop-color:#55D9F2"/>
			</linearGradient>
			<path d="M 297 200 A 15 15 0 0 1 282 215 A 15 15 0 0 1 267 200 A 15 15 0 0 1 282 185 A 15 15 0 0 1 297 200 Z" clip-path="url(#SVGID_2_)" fill="url(#SVGID_18_)"/>
			<path d="M 917 276 A 21 21 0 0 1 896 297 A 21 21 0 0 1 875 276 A 21 21 0 0 1 896 255 A 21 21 0 0 1 917 276 Z" clip-path="url(#SVGID_2_)" fill="#00CFFF"/>
			<path d="M 1018 883 A 21 21 0 0 1 997 904 A 21 21 0 0 1 976 883 A 21 21 0 0 1 997 862 A 21 21 0 0 1 1018 883 Z" clip-path="url(#SVGID_2_)" fill="#FFFFFF"/>
			<path d="M 931 720 A 3 3 0 0 1 928 723 A 3 3 0 0 1 925 720 A 3 3 0 0 1 928 717 A 3 3 0 0 1 931 720 Z" clip-path="url(#SVGID_2_)" fill="#F32F94"/>
			<path d="M 167 232 A 7 7 0 0 1 160 239 A 7 7 0 0 1 153 232 A 7 7 0 0 1 160 225 A 7 7 0 0 1 167 232 Z" clip-path="url(#SVGID_2_)" fill="#FFFFFF"/>
			<path d="M 853 35 A 3 0 0 0 1 850 35 A 3 0 0 0 1 847 35 A 3 0 0 0 1 850 35 A 3 0 0 0 1 853 35 Z" clip-path="url(#SVGID_2_)" fill="#F32F94"/>
			<path d="M 370.375 636 A 4.375 4.375 0 0 1 366 640.375 A 4.375 4.375 0 0 1 361.625 636 A 4.375 4.375 0 0 1 366 631.625 A 4.375 4.375 0 0 1 370.375 636 Z" clip-path="url(#SVGID_2_)" fill="#FFFFFF"/>
			<path d="M 1155 147 A 6 6 0 0 1 1149 153 A 6 6 0 0 1 1143 147 A 6 6 0 0 1 1149 141 A 6 6 0 0 1 1155 147 Z" clip-path="url(#SVGID_2_)" fill="#42ECFE"/>
			<path d="M 455 874 A 7 7 0 0 1 448 881 A 7 7 0 0 1 441 874 A 7 7 0 0 1 448 867 A 7 7 0 0 1 455 874 Z" clip-path="url(#SVGID_2_)" fill="#42ECFE"/>
			<g clip-path="url(#SVGID_2_)">
				<linearGradient id="SVGID_19_" gradientUnits="userSpaceOnUse" x1="370" y1="325" x2="642" y2="325">
					<stop offset="0" style="stop-color:#ACFFFE"/>
					<stop offset="0.1842" style="stop-color:#A4FBFD"/>
					<stop offset="0.4735" style="stop-color:#8DF2FA"/>
					<stop offset="0.83" style="stop-color:#69E2F5"/>
					<stop offset="1" style="stop-color:#55D9F2"/>
				</linearGradient>
				<path fill="url(#SVGID_19_)" d="M641,432c-0.216,0-0.434-0.069-0.617-0.214l-270-212c-0.434-0.341-0.51-0.97-0.169-1.404&#10;&#9;&#9;&#9;&#9;&#9;s0.97-0.509,1.404-0.169l270,212c0.434,0.341,0.51,0.97,0.169,1.403C641.589,431.869,641.296,432,641,432z"/>
			</g>
			<g clip-path="url(#SVGID_2_)">
				<linearGradient id="SVGID_20_" gradientUnits="userSpaceOnUse" x1="960" y1="443" x2="1232" y2="443">
					<stop offset="0" style="stop-color:#ACFFFE"/>
					<stop offset="0.1842" style="stop-color:#A4FBFD"/>
					<stop offset="0.4735" style="stop-color:#8DF2FA"/>
					<stop offset="0.83" style="stop-color:#69E2F5"/>
					<stop offset="1" style="stop-color:#55D9F2"/>
				</linearGradient>
				<path fill="url(#SVGID_20_)" d="M1231,550c-0.217,0-0.435-0.069-0.617-0.214l-270-212c-0.435-0.341-0.51-0.97-0.17-1.404&#10;&#9;&#9;&#9;&#9;&#9;c0.342-0.435,0.971-0.509,1.404-0.169l270,212c0.435,0.341,0.51,0.97,0.17,1.403C1231.59,549.869,1231.296,550,1231,550z"/>
			</g>
			<g clip-path="url(#SVGID_2_)">
				<linearGradient id="SVGID_21_" gradientUnits="userSpaceOnUse" x1="96" y1="935" x2="368" y2="935">
					<stop offset="0" style="stop-color:#ACFFFE"/>
					<stop offset="0.1842" style="stop-color:#A4FBFD"/>
					<stop offset="0.4735" style="stop-color:#8DF2FA"/>
					<stop offset="0.83" style="stop-color:#69E2F5"/>
					<stop offset="1" style="stop-color:#55D9F2"/>
				</linearGradient>
				<path fill="url(#SVGID_21_)" d="M367,1042c-0.216,0-0.434-0.069-0.617-0.214l-270-211.999c-0.434-0.342-0.51-0.971-0.169-1.404&#10;&#9;&#9;&#9;&#9;&#9;c0.341-0.436,0.97-0.51,1.404-0.17l270,212.001c0.434,0.341,0.51,0.97,0.169,1.403C367.589,1041.869,367.296,1042,367,1042z"/>
			</g>
			<g clip-path="url(#SVGID_2_)">
				<linearGradient id="SVGID_22_" gradientUnits="userSpaceOnUse" x1="780" y1="-11" x2="1052" y2="-11">
					<stop offset="0" style="stop-color:#ACFFFE"/>
					<stop offset="0.1842" style="stop-color:#A4FBFD"/>
					<stop offset="0.4735" style="stop-color:#8DF2FA"/>
					<stop offset="0.83" style="stop-color:#69E2F5"/>
					<stop offset="1" style="stop-color:#55D9F2"/>
				</linearGradient>
				<path fill="url(#SVGID_22_)" d="M1051,96c-0.217,0-0.435-0.069-0.617-0.214l-270-212c-0.435-0.341-0.51-0.97-0.17-1.404&#10;&#9;&#9;&#9;&#9;&#9;c0.342-0.435,0.971-0.509,1.404-0.169l270,212c0.435,0.341,0.51,0.97,0.17,1.403C1051.59,95.869,1051.296,96,1051,96z"/>
			</g>
			<g opacity="0.6" clip-path="url(#SVGID_2_)">
				<defs>
					<path d="M 908.458984 875.697021 A 148 148 0 0 1 760.458984 1023.697021 A 148 148 0 0 1 612.458984 875.697021 A 148 148 0 0 1 760.458984 727.697021 A 148 148 0 0 1 908.458984 875.697021 Z" id="SVGID_23_" opacity="0.6"/>
				</defs>
				<clipPath id="SVGID_24_">
					<use overflow="visible" xlink:href="#SVGID_23_"/>
				</clipPath>
				<g clip-path="url(#SVGID_24_)">
					<g>
						<g>
							<path fill="#FFFFFF" d="M1012.715,1041.315c-15.639,0-31.096,3.068-47.255,9.38l-0.683-1.748&#10;&#9;&#9;&#9;&#9;&#9;&#9;&#9;&#9;c16.379-6.398,32.059-9.509,47.938-9.509"/>
						</g>
						<g>
							<path fill="#FFFFFF" d="M676.54,1050.695c-16.158-6.312-31.615-9.38-47.254-9.38c-15.641,0-31.098,3.068-47.255,9.38&#10;&#9;&#9;&#9;&#9;&#9;&#9;&#9;&#9;l-0.683-1.748c16.379-6.398,32.06-9.509,47.938-9.509c15.878,0,31.558,3.11,47.937,9.509L676.54,1050.695z"/>
						</g>
						<g>
							<path fill="#FFFFFF" d="M1012.715,1028.725c-29.537,0-53.778,11.081-73.596,21.92l-0.9-1.647&#10;&#9;&#9;&#9;&#9;&#9;&#9;&#9;&#9;c20.025-10.952,44.537-22.149,74.496-22.149"/>
						</g>
						<g>
							<path fill="#FFFFFF" d="M702.88,1050.645c-19.817-10.839-44.059-21.92-73.595-21.92c-29.539,0-53.778,11.081-73.595,21.92&#10;&#9;&#9;&#9;&#9;&#9;&#9;&#9;&#9;l-0.9-1.647c20.024-10.952,44.534-22.149,74.496-22.149c29.959,0,54.47,11.197,74.496,22.149L702.88,1050.645z"/>
						</g>
						<g>
							<path fill="#FFFFFF" d="M1012.715,1016.133c-37.178,0-66.765,17.537-95.379,34.496l-0.956-1.615&#10;&#9;&#9;&#9;&#9;&#9;&#9;&#9;&#9;c28.831-17.088,58.645-34.759,96.335-34.759"/>
						</g>
						<g>
							<path fill="#FFFFFF" d="M724.664,1050.629c-28.619-16.962-58.205-34.496-95.379-34.496&#10;&#9;&#9;&#9;&#9;&#9;&#9;&#9;&#9;c-37.177,0-66.764,17.536-95.377,34.494l-0.957-1.615c28.831-17.087,58.643-34.757,96.334-34.757&#10;&#9;&#9;&#9;&#9;&#9;&#9;&#9;&#9;c37.688,0,67.498,17.669,96.327,34.755L724.664,1050.629z"/>
						</g>
						<g>
							<path fill="#FFFFFF" d="M1012.715,1003.54c-37.178,0-66.765,17.537-95.379,34.497c-7.115,4.217-14.472,8.577-21.84,12.607&#10;&#9;&#9;&#9;&#9;&#9;&#9;&#9;&#9;l-0.899-1.647c7.338-4.015,14.681-8.366,21.782-12.575c28.83-17.089,58.645-34.76,96.336-34.76"/>
						</g>
						<g>
							<path fill="#FFFFFF" d="M746.504,1050.645c-7.369-4.03-14.727-8.391-21.842-12.608&#10;&#9;&#9;&#9;&#9;&#9;&#9;&#9;&#9;c-28.613-16.959-58.203-34.496-95.377-34.496c-37.177,0-66.766,17.537-95.38,34.496c-7.115,4.218-14.473,8.578-21.841,12.608&#10;&#9;&#9;&#9;&#9;&#9;&#9;&#9;&#9;l-0.9-1.647c7.339-4.015,14.683-8.366,21.785-12.575c28.832-17.089,58.645-34.76,96.337-34.76&#10;&#9;&#9;&#9;&#9;&#9;&#9;&#9;&#9;c37.69,0,67.502,17.671,96.334,34.759c7.102,4.21,14.445,8.562,21.786,12.576L746.504,1050.645z"/>
						</g>
						<g>
							<path fill="#FFFFFF" d="M1012.715,990.949c-37.178,0-66.765,17.536-95.379,34.496c-15.436,9.148-31.396,18.607-48.4,25.25&#10;&#9;&#9;&#9;&#9;&#9;&#9;&#9;&#9;l-0.683-1.748c16.862-6.587,32.755-16.007,48.126-25.117c28.83-17.089,58.645-34.758,96.336-34.758"/>
						</g>
						<g>
							<path fill="#FFFFFF" d="M773.062,1050.695c-17.004-6.643-32.963-16.102-48.398-25.249&#10;&#9;&#9;&#9;&#9;&#9;&#9;&#9;&#9;c-28.615-16.96-58.202-34.497-95.379-34.497c-37.177,0-66.764,17.536-95.377,34.496&#10;&#9;&#9;&#9;&#9;&#9;&#9;&#9;&#9;c-15.334,9.087-31.19,18.485-48.067,25.119l-0.687-1.748c16.736-6.577,32.526-15.937,47.796-24.987&#10;&#9;&#9;&#9;&#9;&#9;&#9;&#9;&#9;c28.831-17.088,58.643-34.757,96.335-34.757c37.691,0,67.505,17.671,96.337,34.758c15.37,9.11,31.262,18.53,48.124,25.117&#10;&#9;&#9;&#9;&#9;&#9;&#9;&#9;&#9;L773.062,1050.695z"/>
						</g>
						<g>
							<path fill="#FFFFFF" d="M821,1047.611c-37.691,0-67.505-17.67-96.336-34.758c-28.615-16.959-58.202-34.497-95.379-34.497&#10;&#9;&#9;&#9;&#9;&#9;&#9;&#9;&#9;c-37.177,0-66.765,17.536-95.379,34.496c-15.333,9.089-31.189,18.486-48.065,25.12l-0.687-1.747&#10;&#9;&#9;&#9;&#9;&#9;&#9;&#9;&#9;c16.736-6.579,32.525-15.937,47.794-24.987c28.832-17.088,58.645-34.759,96.337-34.759c37.691,0,67.505,17.671,96.336,34.759&#10;&#9;&#9;&#9;&#9;&#9;&#9;&#9;&#9;c28.613,16.959,58.201,34.496,95.379,34.496s66.766-17.537,95.379-34.496c28.83-17.088,58.643-34.759,96.336-34.759v1.877&#10;&#9;&#9;&#9;&#9;&#9;&#9;&#9;&#9;c-37.178,0-66.766,17.538-95.379,34.497C888.504,1029.941,858.691,1047.611,821,1047.611z"/>
						</g>
						<g>
							<path fill="#FFFFFF" d="M821,1035.021c-37.691,0-67.505-17.671-96.336-34.76c-28.615-16.959-58.202-34.497-95.379-34.497&#10;&#9;&#9;&#9;&#9;&#9;&#9;&#9;&#9;c-37.177,0-66.765,17.538-95.378,34.497c-15.334,9.089-31.19,18.487-48.066,25.12l-0.687-1.747&#10;&#9;&#9;&#9;&#9;&#9;&#9;&#9;&#9;c16.736-6.579,32.526-15.938,47.796-24.987c28.831-17.089,58.644-34.76,96.335-34.76c37.691,0,67.505,17.671,96.336,34.76&#10;&#9;&#9;&#9;&#9;&#9;&#9;&#9;&#9;c28.613,16.959,58.201,34.496,95.379,34.496s66.766-17.537,95.379-34.496c28.83-17.089,58.643-34.76,96.336-34.76v1.877&#10;&#9;&#9;&#9;&#9;&#9;&#9;&#9;&#9;c-37.178,0-66.765,17.538-95.379,34.497C888.504,1017.35,858.691,1035.021,821,1035.021z"/>
						</g>
						<g>
							<path fill="#FFFFFF" d="M821,1022.429c-37.691,0-67.505-17.671-96.336-34.758c-28.615-16.96-58.202-34.497-95.379-34.497&#10;&#9;&#9;&#9;&#9;&#9;&#9;&#9;&#9;c-37.177,0-66.765,17.536-95.377,34.495c-15.334,9.088-31.19,18.486-48.067,25.12l-0.687-1.748&#10;&#9;&#9;&#9;&#9;&#9;&#9;&#9;&#9;c16.736-6.577,32.526-15.937,47.796-24.987c28.831-17.088,58.644-34.757,96.335-34.757c37.691,0,67.505,17.67,96.336,34.758&#10;&#9;&#9;&#9;&#9;&#9;&#9;&#9;&#9;c28.613,16.959,58.201,34.497,95.379,34.497s66.766-17.538,95.379-34.497c28.83-17.088,58.643-34.758,96.336-34.758v1.877&#10;&#9;&#9;&#9;&#9;&#9;&#9;&#9;&#9;c-37.178,0-66.766,17.537-95.379,34.497C888.504,1004.758,858.691,1022.429,821,1022.429z"/>
						</g>
						<g>
							<path fill="#FFFFFF" d="M821,1009.836c-37.691,0-67.505-17.671-96.336-34.758c-28.615-16.96-58.202-34.497-95.379-34.497&#10;&#9;&#9;&#9;&#9;&#9;&#9;&#9;&#9;c-37.177,0-66.765,17.536-95.379,34.495c-15.333,9.089-31.189,18.487-48.065,25.121l-0.687-1.748&#10;&#9;&#9;&#9;&#9;&#9;&#9;&#9;&#9;c16.736-6.578,32.525-15.936,47.794-24.987c28.832-17.087,58.645-34.758,96.337-34.758c37.691,0,67.505,17.671,96.336,34.758&#10;&#9;&#9;&#9;&#9;&#9;&#9;&#9;&#9;c28.613,16.96,58.201,34.497,95.379,34.497s66.766-17.537,95.379-34.497c28.83-17.087,58.643-34.758,96.336-34.758v1.877&#10;&#9;&#9;&#9;&#9;&#9;&#9;&#9;&#9;c-37.178,0-66.766,17.537-95.379,34.497C888.504,992.165,858.691,1009.836,821,1009.836z"/>
						</g>
						<g>
							<path fill="#FFFFFF" d="M821,997.244c-37.691,0-67.505-17.67-96.336-34.758c-28.615-16.959-58.202-34.495-95.379-34.495&#10;&#9;&#9;&#9;&#9;&#9;&#9;&#9;&#9;s-66.764,17.536-95.377,34.494c-15.334,9.089-31.19,18.486-48.067,25.12l-0.687-1.747&#10;&#9;&#9;&#9;&#9;&#9;&#9;&#9;&#9;c16.736-6.578,32.526-15.937,47.797-24.987c28.831-17.088,58.644-34.758,96.334-34.758c37.691,0,67.505,17.67,96.336,34.759&#10;&#9;&#9;&#9;&#9;&#9;&#9;&#9;&#9;c28.613,16.959,58.201,34.495,95.379,34.495s66.766-17.536,95.379-34.495c28.83-17.089,58.643-34.759,96.336-34.759v1.878&#10;&#9;&#9;&#9;&#9;&#9;&#9;&#9;&#9;c-37.178,0-66.766,17.536-95.379,34.495C888.504,979.574,858.691,997.244,821,997.244z"/>
						</g>
						<g>
							<path fill="#FFFFFF" d="M821,984.653c-37.691,0-67.505-17.671-96.336-34.759c-28.615-16.959-58.202-34.496-95.379-34.496&#10;&#9;&#9;&#9;&#9;&#9;&#9;&#9;&#9;c-37.177,0-66.765,17.536-95.379,34.495c-15.333,9.089-31.189,18.487-48.065,25.121l-0.687-1.748&#10;&#9;&#9;&#9;&#9;&#9;&#9;&#9;&#9;c16.736-6.579,32.525-15.937,47.794-24.987c28.832-17.088,58.645-34.758,96.337-34.758c37.691,0,67.505,17.67,96.336,34.758&#10;&#9;&#9;&#9;&#9;&#9;&#9;&#9;&#9;c28.613,16.959,58.201,34.497,95.379,34.497s66.766-17.538,95.379-34.497c28.83-17.088,58.643-34.758,96.336-34.758v1.877&#10;&#9;&#9;&#9;&#9;&#9;&#9;&#9;&#9;c-37.178,0-66.766,17.537-95.379,34.496C888.504,966.982,858.691,984.653,821,984.653z"/>
						</g>
						<g>
							<path fill="#FFFFFF" d="M821,972.061c-37.691,0-67.505-17.671-96.336-34.759c-28.615-16.959-58.202-34.495-95.379-34.495&#10;&#9;&#9;&#9;&#9;&#9;&#9;&#9;&#9;s-66.764,17.536-95.377,34.494c-15.334,9.089-31.19,18.487-48.067,25.121l-0.687-1.748&#10;&#9;&#9;&#9;&#9;&#9;&#9;&#9;&#9;c16.736-6.577,32.526-15.937,47.797-24.987c28.831-17.089,58.644-34.757,96.334-34.757c37.691,0,67.505,17.669,96.336,34.758&#10;&#9;&#9;&#9;&#9;&#9;&#9;&#9;&#9;c28.613,16.96,58.201,34.496,95.379,34.496s66.766-17.536,95.379-34.496c28.83-17.089,58.643-34.758,96.336-34.758v1.877&#10;&#9;&#9;&#9;&#9;&#9;&#9;&#9;&#9;c-37.178,0-66.766,17.536-95.379,34.495C888.504,954.39,858.691,972.061,821,972.061z"/>
						</g>
						<g>
							<path fill="#FFFFFF" d="M821,959.469c-37.691,0-67.505-17.67-96.336-34.758c-28.615-16.959-58.202-34.497-95.379-34.497&#10;&#9;&#9;&#9;&#9;&#9;&#9;&#9;&#9;c-37.177,0-66.765,17.536-95.378,34.497c-15.334,9.088-31.19,18.485-48.066,25.119l-0.687-1.748&#10;&#9;&#9;&#9;&#9;&#9;&#9;&#9;&#9;c16.736-6.578,32.526-15.936,47.796-24.987c28.831-17.087,58.644-34.758,96.335-34.758c37.691,0,67.505,17.671,96.336,34.758&#10;&#9;&#9;&#9;&#9;&#9;&#9;&#9;&#9;c28.613,16.961,58.201,34.497,95.379,34.497s66.766-17.536,95.379-34.497c28.83-17.087,58.643-34.758,96.336-34.758v1.877&#10;&#9;&#9;&#9;&#9;&#9;&#9;&#9;&#9;c-37.178,0-66.766,17.538-95.379,34.497C888.504,941.799,858.691,959.469,821,959.469z"/>
						</g>
						<g>
							<path fill="#FFFFFF" d="M821,946.878c-37.691,0-67.505-17.671-96.336-34.759c-28.615-16.959-58.202-34.496-95.379-34.496&#10;&#9;&#9;&#9;&#9;&#9;&#9;&#9;&#9;c-37.177,0-66.765,17.537-95.378,34.496c-15.334,9.088-31.19,18.486-48.066,25.119l-0.687-1.747&#10;&#9;&#9;&#9;&#9;&#9;&#9;&#9;&#9;c16.736-6.579,32.526-15.937,47.796-24.987c28.831-17.088,58.644-34.759,96.335-34.759c37.691,0,67.505,17.671,96.336,34.759&#10;&#9;&#9;&#9;&#9;&#9;&#9;&#9;&#9;C754.234,927.463,783.822,945,821,945s66.766-17.537,95.379-34.496c28.83-17.088,58.643-34.759,96.336-34.759v1.878&#10;&#9;&#9;&#9;&#9;&#9;&#9;&#9;&#9;c-37.178,0-66.766,17.537-95.379,34.496C888.504,929.207,858.691,946.878,821,946.878z"/>
						</g>
						<g>
							<path fill="#FFFFFF" d="M821,934.286c-37.691,0-67.505-17.671-96.336-34.76c-28.615-16.959-58.202-34.495-95.379-34.495&#10;&#9;&#9;&#9;&#9;&#9;&#9;&#9;&#9;c-37.177,0-66.765,17.536-95.378,34.495c-15.334,9.089-31.19,18.486-48.066,25.121l-0.687-1.748&#10;&#9;&#9;&#9;&#9;&#9;&#9;&#9;&#9;c16.736-6.578,32.526-15.938,47.796-24.988c28.831-17.088,58.644-34.757,96.335-34.757c37.691,0,67.505,17.669,96.336,34.758&#10;&#9;&#9;&#9;&#9;&#9;&#9;&#9;&#9;c28.613,16.961,58.201,34.497,95.379,34.497s66.766-17.536,95.379-34.497c28.83-17.089,58.643-34.758,96.336-34.758v1.877&#10;&#9;&#9;&#9;&#9;&#9;&#9;&#9;&#9;c-37.178,0-66.766,17.536-95.379,34.495C888.504,916.615,858.691,934.286,821,934.286z"/>
						</g>
						<g>
							<path fill="#FFFFFF" d="M821,921.694c-37.691,0-67.505-17.67-96.336-34.759c-28.615-16.96-58.202-34.496-95.379-34.496&#10;&#9;&#9;&#9;&#9;&#9;&#9;&#9;&#9;c-37.177,0-66.765,17.536-95.378,34.494c-15.334,9.089-31.19,18.487-48.066,25.121l-0.687-1.746&#10;&#9;&#9;&#9;&#9;&#9;&#9;&#9;&#9;c16.736-6.579,32.526-15.938,47.796-24.989c28.831-17.088,58.643-34.757,96.335-34.757c37.691,0,67.505,17.669,96.336,34.758&#10;&#9;&#9;&#9;&#9;&#9;&#9;&#9;&#9;c28.613,16.96,58.201,34.497,95.379,34.497s66.766-17.537,95.379-34.497c28.83-17.089,58.643-34.758,96.336-34.758v1.877&#10;&#9;&#9;&#9;&#9;&#9;&#9;&#9;&#9;c-37.178,0-66.766,17.536-95.379,34.496C888.504,904.024,858.691,921.694,821,921.694z"/>
						</g>
						<g>
							<path fill="#FFFFFF" d="M821,909.102c-37.691,0-67.505-17.669-96.336-34.758c-28.615-16.959-58.202-34.497-95.379-34.497&#10;&#9;&#9;&#9;&#9;&#9;&#9;&#9;&#9;c-37.177,0-66.765,17.538-95.378,34.496c-15.334,9.089-31.19,18.486-48.066,25.119l-0.687-1.746&#10;&#9;&#9;&#9;&#9;&#9;&#9;&#9;&#9;c16.736-6.579,32.526-15.938,47.796-24.987c28.831-17.088,58.644-34.759,96.335-34.759c37.691,0,67.505,17.671,96.336,34.76&#10;&#9;&#9;&#9;&#9;&#9;&#9;&#9;&#9;c28.613,16.958,58.201,34.495,95.379,34.495s66.766-17.537,95.379-34.495c28.83-17.089,58.643-34.76,96.336-34.76v1.877&#10;&#9;&#9;&#9;&#9;&#9;&#9;&#9;&#9;c-37.178,0-66.766,17.538-95.379,34.497C888.504,891.433,858.691,909.102,821,909.102z"/>
						</g>
						<g>
							<path fill="#FFFFFF" d="M821,896.512c-37.691,0-67.505-17.671-96.336-34.76c-28.615-16.959-58.202-34.495-95.379-34.495&#10;&#9;&#9;&#9;&#9;&#9;&#9;&#9;&#9;c-37.177,0-66.765,17.535-95.378,34.495c-15.334,9.088-31.19,18.486-48.066,25.119l-0.687-1.746&#10;&#9;&#9;&#9;&#9;&#9;&#9;&#9;&#9;c16.736-6.58,32.526-15.938,47.796-24.988c28.831-17.088,58.644-34.757,96.335-34.757c37.691,0,67.505,17.669,96.336,34.758&#10;&#9;&#9;&#9;&#9;&#9;&#9;&#9;&#9;c28.613,16.959,58.201,34.497,95.379,34.497s66.766-17.538,95.379-34.497c28.83-17.089,58.643-34.758,96.336-34.758v1.877&#10;&#9;&#9;&#9;&#9;&#9;&#9;&#9;&#9;c-37.178,0-66.766,17.536-95.379,34.495C888.504,878.841,858.691,896.512,821,896.512z"/>
						</g>
						<g>
							<path fill="#FFFFFF" d="M821,883.919c-37.691,0-67.505-17.671-96.336-34.76c-28.615-16.958-58.202-34.495-95.379-34.495&#10;&#9;&#9;&#9;&#9;&#9;&#9;&#9;&#9;c-37.177,0-66.765,17.537-95.379,34.495c-15.333,9.089-31.189,18.487-48.065,25.12l-0.687-1.747&#10;&#9;&#9;&#9;&#9;&#9;&#9;&#9;&#9;c16.736-6.578,32.525-15.937,47.794-24.987c28.832-17.089,58.645-34.758,96.337-34.758c37.691,0,67.505,17.669,96.336,34.759&#10;&#9;&#9;&#9;&#9;&#9;&#9;&#9;&#9;c28.613,16.959,58.201,34.496,95.379,34.496s66.766-17.537,95.379-34.496c28.83-17.09,58.643-34.759,96.336-34.759v1.877&#10;&#9;&#9;&#9;&#9;&#9;&#9;&#9;&#9;c-37.178,0-66.766,17.537-95.379,34.495C888.504,866.248,858.691,883.919,821,883.919z"/>
						</g>
						<g>
							<path fill="#FFFFFF" d="M821,871.327c-37.691,0-67.505-17.67-96.336-34.759c-28.615-16.96-58.202-34.497-95.379-34.497&#10;&#9;&#9;&#9;&#9;&#9;&#9;&#9;&#9;c-37.177,0-66.765,17.537-95.379,34.497c-15.333,9.089-31.189,18.485-48.065,25.12l-0.687-1.747&#10;&#9;&#9;&#9;&#9;&#9;&#9;&#9;&#9;c16.736-6.578,32.525-15.937,47.796-24.987c28.831-17.089,58.644-34.76,96.335-34.76c37.691,0,67.505,17.671,96.336,34.76&#10;&#9;&#9;&#9;&#9;&#9;&#9;&#9;&#9;c28.613,16.959,58.201,34.496,95.379,34.496s66.766-17.537,95.379-34.496c28.83-17.089,58.643-34.76,96.336-34.76v1.877&#10;&#9;&#9;&#9;&#9;&#9;&#9;&#9;&#9;c-37.178,0-66.766,17.537-95.379,34.497C888.504,853.657,858.691,871.327,821,871.327z"/>
						</g>
						<g>
							<path fill="#FFFFFF" d="M821,858.734c-37.691,0-67.505-17.669-96.336-34.758c-28.615-16.958-58.202-34.495-95.379-34.495&#10;&#9;&#9;&#9;&#9;&#9;&#9;&#9;&#9;c-37.177,0-66.765,17.536-95.379,34.495c-15.333,9.088-31.189,18.485-48.065,25.119l-0.687-1.747&#10;&#9;&#9;&#9;&#9;&#9;&#9;&#9;&#9;c16.736-6.578,32.525-15.937,47.796-24.987c28.831-17.088,58.644-34.758,96.335-34.758c37.691,0,67.505,17.67,96.336,34.759&#10;&#9;&#9;&#9;&#9;&#9;&#9;&#9;&#9;c28.613,16.959,58.201,34.495,95.379,34.495s66.766-17.536,95.379-34.495c28.83-17.089,58.643-34.759,96.336-34.759v1.878&#10;&#9;&#9;&#9;&#9;&#9;&#9;&#9;&#9;c-37.178,0-66.766,17.537-95.379,34.495C888.504,841.065,858.691,858.734,821,858.734z"/>
						</g>
						<g>
							<path fill="#FFFFFF" d="M821,846.144c-37.691,0-67.505-17.67-96.336-34.759c-28.615-16.959-58.202-34.496-95.379-34.496&#10;&#9;&#9;&#9;&#9;&#9;&#9;&#9;&#9;c-37.177,0-66.765,17.537-95.378,34.495c-15.334,9.089-31.19,18.487-48.066,25.121l-0.687-1.747&#10;&#9;&#9;&#9;&#9;&#9;&#9;&#9;&#9;c16.736-6.58,32.526-15.938,47.796-24.988c28.831-17.088,58.644-34.758,96.335-34.758c37.691,0,67.505,17.67,96.336,34.759&#10;&#9;&#9;&#9;&#9;&#9;&#9;&#9;&#9;c28.613,16.96,58.201,34.496,95.379,34.496s66.766-17.536,95.379-34.496c28.83-17.089,58.643-34.759,96.336-34.759v1.877&#10;&#9;&#9;&#9;&#9;&#9;&#9;&#9;&#9;c-37.178,0-66.766,17.537-95.379,34.496C888.504,828.474,858.691,846.144,821,846.144z"/>
						</g>
						<g>
							<path fill="#FFFFFF" d="M821,833.552c-37.691,0-67.505-17.671-96.336-34.758c-28.615-16.961-58.202-34.497-95.379-34.497&#10;&#9;&#9;&#9;&#9;&#9;&#9;&#9;&#9;c-37.177,0-66.765,17.536-95.379,34.497c-15.333,9.087-31.189,18.485-48.065,25.119l-0.687-1.748&#10;&#9;&#9;&#9;&#9;&#9;&#9;&#9;&#9;c16.736-6.577,32.525-15.936,47.794-24.987c28.832-17.087,58.645-34.758,96.337-34.758c37.691,0,67.505,17.671,96.336,34.758&#10;&#9;&#9;&#9;&#9;&#9;&#9;&#9;&#9;c28.613,16.961,58.201,34.497,95.379,34.497s66.766-17.536,95.379-34.497c28.83-17.087,58.643-34.758,96.336-34.758v1.877&#10;&#9;&#9;&#9;&#9;&#9;&#9;&#9;&#9;c-37.178,0-66.766,17.536-95.379,34.497C888.504,815.881,858.691,833.552,821,833.552z"/>
						</g>
						<g>
							<path fill="#FFFFFF" d="M821,820.961c-37.691,0-67.505-17.67-96.336-34.76c-28.615-16.958-58.202-34.496-95.379-34.496&#10;&#9;&#9;&#9;&#9;&#9;&#9;&#9;&#9;s-66.764,17.537-95.377,34.496c-15.334,9.088-31.191,18.485-48.067,25.119l-0.687-1.748&#10;&#9;&#9;&#9;&#9;&#9;&#9;&#9;&#9;c16.736-6.577,32.527-15.936,47.797-24.987c28.831-17.087,58.643-34.757,96.334-34.757c37.691,0,67.505,17.67,96.336,34.76&#10;&#9;&#9;&#9;&#9;&#9;&#9;&#9;&#9;c28.613,16.958,58.201,34.495,95.379,34.495s66.766-17.537,95.379-34.495c28.83-17.09,58.643-34.76,96.336-34.76v1.877&#10;&#9;&#9;&#9;&#9;&#9;&#9;&#9;&#9;c-37.178,0-66.766,17.538-95.379,34.496C888.504,803.291,858.691,820.961,821,820.961z"/>
						</g>
						<g>
							<path fill="#FFFFFF" d="M821,808.368c-37.691,0-67.505-17.67-96.336-34.758c-28.615-16.96-58.202-34.496-95.379-34.496&#10;&#9;&#9;&#9;&#9;&#9;&#9;&#9;&#9;c-37.178,0-66.765,17.536-95.379,34.496c-15.334,9.088-31.189,18.486-48.065,25.12l-0.687-1.748&#10;&#9;&#9;&#9;&#9;&#9;&#9;&#9;&#9;c16.736-6.578,32.525-15.937,47.794-24.987c28.832-17.088,58.645-34.758,96.337-34.758c37.691,0,67.505,17.67,96.336,34.758&#10;&#9;&#9;&#9;&#9;&#9;&#9;&#9;&#9;c28.613,16.959,58.201,34.495,95.379,34.495s66.766-17.536,95.379-34.495c28.83-17.088,58.643-34.758,96.336-34.758v1.877&#10;&#9;&#9;&#9;&#9;&#9;&#9;&#9;&#9;c-37.178,0-66.766,17.536-95.379,34.496C888.504,790.698,858.691,808.368,821,808.368z"/>
						</g>
						<g>
							<path fill="#FFFFFF" d="M821,795.776c-37.691,0-67.505-17.671-96.336-34.759c-28.615-16.959-58.202-34.495-95.379-34.495&#10;&#9;&#9;&#9;&#9;&#9;&#9;&#9;&#9;c-37.177,0-66.765,17.535-95.378,34.495c-15.334,9.088-31.19,18.486-48.066,25.12l-0.687-1.748&#10;&#9;&#9;&#9;&#9;&#9;&#9;&#9;&#9;c16.736-6.577,32.526-15.937,47.796-24.987c28.831-17.088,58.644-34.757,96.335-34.757c37.691,0,67.505,17.669,96.336,34.757&#10;&#9;&#9;&#9;&#9;&#9;&#9;&#9;&#9;c28.613,16.961,58.201,34.497,95.379,34.497s66.766-17.536,95.379-34.497c28.83-17.088,58.643-34.757,96.336-34.757v1.877&#10;&#9;&#9;&#9;&#9;&#9;&#9;&#9;&#9;c-37.178,0-66.766,17.536-95.379,34.495C888.504,778.105,858.691,795.776,821,795.776z"/>
						</g>
						<g>
							<path fill="#FFFFFF" d="M821,783.185c-37.691,0-67.505-17.669-96.336-34.759c-28.615-16.958-58.202-34.496-95.379-34.496&#10;&#9;&#9;&#9;&#9;&#9;&#9;&#9;&#9;c-37.177,0-66.765,17.538-95.378,34.496c-15.334,9.089-31.19,18.485-48.066,25.119l-0.687-1.746&#10;&#9;&#9;&#9;&#9;&#9;&#9;&#9;&#9;c16.736-6.579,32.526-15.938,47.796-24.988c28.831-17.088,58.643-34.758,96.335-34.758c37.691,0,67.505,17.67,96.336,34.76&#10;&#9;&#9;&#9;&#9;&#9;&#9;&#9;&#9;c28.613,16.958,58.201,34.495,95.379,34.495s66.766-17.537,95.379-34.495c28.83-17.09,58.643-34.76,96.336-34.76v1.877&#10;&#9;&#9;&#9;&#9;&#9;&#9;&#9;&#9;c-37.178,0-66.766,17.538-95.379,34.496C888.504,765.516,858.691,783.185,821,783.185z"/>
						</g>
						<g>
							<path fill="#FFFFFF" d="M821,770.592c-37.691,0-67.505-17.669-96.336-34.757c-28.615-16.96-58.202-34.496-95.379-34.496&#10;&#9;&#9;&#9;&#9;&#9;&#9;&#9;&#9;c-37.177,0-66.765,17.536-95.378,34.495c-15.334,9.089-31.19,18.487-48.066,25.12l-0.687-1.747&#10;&#9;&#9;&#9;&#9;&#9;&#9;&#9;&#9;c16.736-6.579,32.526-15.938,47.796-24.987c28.831-17.088,58.644-34.759,96.335-34.759c37.691,0,67.505,17.671,96.336,34.759&#10;&#9;&#9;&#9;&#9;&#9;&#9;&#9;&#9;c28.613,16.959,58.201,34.495,95.379,34.495s66.766-17.536,95.379-34.495c28.83-17.088,58.643-34.759,96.336-34.759v1.878&#10;&#9;&#9;&#9;&#9;&#9;&#9;&#9;&#9;c-37.178,0-66.766,17.536-95.379,34.496C888.504,752.923,858.691,770.592,821,770.592z"/>
						</g>
						<g>
							<path fill="#FFFFFF" d="M821,758.002c-37.691,0-67.505-17.671-96.336-34.76c-28.615-16.959-58.202-34.496-95.379-34.496&#10;&#9;&#9;&#9;&#9;&#9;&#9;&#9;&#9;c-37.177,0-66.765,17.537-95.379,34.496c-15.333,9.088-31.189,18.486-48.065,25.12l-0.687-1.748&#10;&#9;&#9;&#9;&#9;&#9;&#9;&#9;&#9;c16.736-6.577,32.525-15.937,47.794-24.987c28.832-17.088,58.645-34.758,96.337-34.758c37.691,0,67.505,17.67,96.336,34.759&#10;&#9;&#9;&#9;&#9;&#9;&#9;&#9;&#9;c28.613,16.96,58.201,34.497,95.379,34.497s66.766-17.537,95.379-34.497c28.83-17.089,58.643-34.759,96.336-34.759v1.877&#10;&#9;&#9;&#9;&#9;&#9;&#9;&#9;&#9;c-37.178,0-66.766,17.537-95.379,34.496C888.504,740.331,858.691,758.002,821,758.002z"/>
						</g>
						<g>
							<path fill="#FFFFFF" d="M821,745.409c-37.691,0-67.505-17.669-96.336-34.758c-28.615-16.96-58.202-34.497-95.379-34.497&#10;&#9;&#9;&#9;&#9;&#9;&#9;&#9;&#9;c-37.177,0-66.765,17.537-95.378,34.495c-15.334,9.089-31.19,18.487-48.066,25.12l-0.687-1.747&#10;&#9;&#9;&#9;&#9;&#9;&#9;&#9;&#9;c16.736-6.578,32.526-15.938,47.796-24.987c28.831-17.088,58.644-34.758,96.335-34.758c37.691,0,67.505,17.67,96.336,34.76&#10;&#9;&#9;&#9;&#9;&#9;&#9;&#9;&#9;c28.613,16.958,58.201,34.495,95.379,34.495s66.766-17.537,95.379-34.495c28.83-17.09,58.643-34.76,96.336-34.76v1.877&#10;&#9;&#9;&#9;&#9;&#9;&#9;&#9;&#9;c-37.178,0-66.766,17.537-95.379,34.497C888.504,727.74,858.691,745.409,821,745.409z"/>
						</g>
						<g>
							<path fill="#FFFFFF" d="M821,732.819c-37.691,0-67.505-17.672-96.336-34.76c-28.615-16.96-58.202-34.497-95.379-34.497&#10;&#9;&#9;&#9;&#9;&#9;&#9;&#9;&#9;c-37.177,0-66.765,17.537-95.378,34.496c-15.334,9.089-31.19,18.486-48.066,25.12l-0.687-1.747&#10;&#9;&#9;&#9;&#9;&#9;&#9;&#9;&#9;c16.736-6.578,32.526-15.937,47.796-24.987c28.831-17.089,58.643-34.759,96.335-34.759c37.691,0,67.505,17.671,96.336,34.759&#10;&#9;&#9;&#9;&#9;&#9;&#9;&#9;&#9;c28.613,16.96,58.201,34.497,95.379,34.497s66.766-17.537,95.379-34.497c28.83-17.088,58.643-34.759,96.336-34.759v1.877&#10;&#9;&#9;&#9;&#9;&#9;&#9;&#9;&#9;c-37.178,0-66.766,17.537-95.379,34.497C888.504,715.147,858.691,732.819,821,732.819z"/>
						</g>
						<g>
							<path fill="#FFFFFF" d="M821,720.227c-37.691,0-67.505-17.67-96.336-34.76c-28.615-16.959-58.202-34.495-95.379-34.495&#10;&#9;&#9;&#9;&#9;&#9;&#9;&#9;&#9;c-37.177,0-66.765,17.536-95.378,34.495c-15.334,9.088-31.19,18.486-48.066,25.119l-0.687-1.746&#10;&#9;&#9;&#9;&#9;&#9;&#9;&#9;&#9;c16.736-6.578,32.526-15.938,47.796-24.988c28.831-17.088,58.644-34.758,96.335-34.758c37.691,0,67.505,17.67,96.336,34.76&#10;&#9;&#9;&#9;&#9;&#9;&#9;&#9;&#9;c28.613,16.958,58.201,34.496,95.379,34.496s66.766-17.538,95.379-34.496c28.83-17.09,58.643-34.76,96.336-34.76v1.878&#10;&#9;&#9;&#9;&#9;&#9;&#9;&#9;&#9;c-37.178,0-66.766,17.536-95.379,34.495C888.504,702.557,858.691,720.227,821,720.227z"/>
						</g>
						<g>
							<path fill="#FFFFFF" d="M821,707.634c-37.693,0-67.509-17.671-96.341-34.76c-15.369-9.109-31.261-18.528-48.12-25.114&#10;&#9;&#9;&#9;&#9;&#9;&#9;&#9;&#9;l0.682-1.75c17.002,6.643,32.962,16.102,48.396,25.25c28.615,16.96,58.205,34.497,95.383,34.497s66.766-17.536,95.379-34.496&#10;&#9;&#9;&#9;&#9;&#9;&#9;&#9;&#9;c15.434-9.147,31.395-18.607,48.398-25.251l0.683,1.75c-16.86,6.586-32.755,16.006-48.124,25.115&#10;&#9;&#9;&#9;&#9;&#9;&#9;&#9;&#9;C888.504,689.964,858.691,707.634,821,707.634z"/>
						</g>
						<g>
							<path fill="#FFFFFF" d="M485.841,697.995l-0.687-1.747c16.736-6.579,32.525-15.938,47.796-24.988&#10;&#9;&#9;&#9;&#9;&#9;&#9;&#9;&#9;c15.435-9.147,31.395-18.607,48.397-25.25l0.683,1.75c-16.86,6.586-32.753,16.006-48.123,25.115&#10;&#9;&#9;&#9;&#9;&#9;&#9;&#9;&#9;C518.573,681.963,502.717,691.361,485.841,697.995z"/>
						</g>
						<g>
							<path fill="#FFFFFF" d="M821,695.043c-37.693,0-67.506-17.671-96.338-34.76c-7.102-4.209-14.443-8.561-21.782-12.574&#10;&#9;&#9;&#9;&#9;&#9;&#9;&#9;&#9;l0.901-1.648c7.366,4.03,14.723,8.391,21.838,12.607c28.613,16.961,58.203,34.498,95.381,34.498s66.766-17.537,95.38-34.497&#10;&#9;&#9;&#9;&#9;&#9;&#9;&#9;&#9;c7.115-4.217,14.472-8.577,21.839-12.608l0.9,1.648c-7.338,4.014-14.681,8.366-21.782,12.574&#10;&#9;&#9;&#9;&#9;&#9;&#9;&#9;&#9;C888.504,677.372,858.691,695.043,821,695.043z"/>
						</g>
						<g>
							<path fill="#FFFFFF" d="M485.841,685.403l-0.687-1.747c16.734-6.578,32.523-15.936,47.792-24.985&#10;&#9;&#9;&#9;&#9;&#9;&#9;&#9;&#9;c7.116-4.218,14.474-8.579,21.844-12.61l0.9,1.648c-7.341,4.015-14.686,8.367-21.788,12.576&#10;&#9;&#9;&#9;&#9;&#9;&#9;&#9;&#9;C518.57,669.373,502.715,678.77,485.841,685.403z"/>
						</g>
						<g>
							<path fill="#FFFFFF" d="M821,682.451c-37.691,0-67.504-17.67-96.336-34.76l0.955-1.613&#10;&#9;&#9;&#9;&#9;&#9;&#9;&#9;&#9;c28.615,16.959,58.205,34.496,95.381,34.496s66.762-17.535,95.373-34.494l0.963,1.611&#10;&#9;&#9;&#9;&#9;&#9;&#9;&#9;&#9;C888.501,664.783,858.688,682.451,821,682.451z"/>
						</g>
						<g>
							<path fill="#FFFFFF" d="M485.841,672.812l-0.687-1.748c16.727-6.575,32.508-15.928,47.771-24.973l0.981,1.6&#10;&#9;&#9;&#9;&#9;&#9;&#9;&#9;&#9;C518.555,656.789,502.708,666.182,485.841,672.812z"/>
						</g>
						<g>
							<path fill="#FFFFFF" d="M821,669.858c-29.961,0-54.471-11.196-74.496-22.149l0.901-1.648&#10;&#9;&#9;&#9;&#9;&#9;&#9;&#9;&#9;c19.815,10.84,44.058,21.921,73.595,21.921c29.539,0,53.779-11.081,73.597-21.921l0.899,1.648&#10;&#9;&#9;&#9;&#9;&#9;&#9;&#9;&#9;C875.473,658.662,850.96,669.858,821,669.858z"/>
						</g>
						<g>
							<path fill="#FFFFFF" d="M485.841,660.22l-0.687-1.747c8.054-3.165,16.318-7.109,26.01-12.411l0.9,1.646&#10;&#9;&#9;&#9;&#9;&#9;&#9;&#9;&#9;C502.302,653.05,493.969,657.025,485.841,660.22z"/>
						</g>
						<g>
							<path fill="#FFFFFF" d="M821,657.268c-15.879,0-31.559-3.111-47.938-9.508l0.684-1.75&#10;&#9;&#9;&#9;&#9;&#9;&#9;&#9;&#9;c16.156,6.312,31.613,9.381,47.254,9.381c15.639,0,31.097-3.068,47.253-9.381l0.683,1.75&#10;&#9;&#9;&#9;&#9;&#9;&#9;&#9;&#9;C852.559,654.156,836.879,657.268,821,657.268z"/>
						</g>
					</g>
				</g>
			</g>
			<g clip-path="url(#SVGID_2_)">
				<path d="M 1207 645 A 38 38 0 0 1 1169 683 A 38 38 0 0 1 1131 645 A 38 38 0 0 1 1169 607 A 38 38 0 0 1 1207 645 Z" fill="#00CFFF"/>
				
					<linearGradient id="SVGID_25_" gradientUnits="userSpaceOnUse" x1="1140.0508" y1="583.7588" x2="1168.0504" y2="697.7573" gradientTransform="matrix(0.6193 -0.7852 0.7852 0.6193 -61.377 1163.4204)">
					<stop offset="0" style="stop-color:#ACFFFE"/>
					<stop offset="0.1842" style="stop-color:#A4FBFD"/>
					<stop offset="0.4735" style="stop-color:#8DF2FA"/>
					<stop offset="0.83" style="stop-color:#69E2F5"/>
					<stop offset="1" style="stop-color:#55D9F2"/>
				</linearGradient>
				<path fill="url(#SVGID_25_)" d="M1140.443,619.93c-0.437,0.498-0.864,1.011-1.279,1.537&#10;&#9;&#9;&#9;&#9;&#9;c-12.997,16.479-10.175,40.373,6.303,53.369c16.479,12.997,40.373,10.175,53.369-6.303c0.416-0.527,0.814-1.062,1.197-1.604&#10;&#9;&#9;&#9;&#9;&#9;L1140.443,619.93z"/>
			</g>
			<g clip-path="url(#SVGID_2_)">
				<path d="M 226.341995 736.01001 A 56.026001 56.026001 0 0 1 170.315994 792.036011 A 56.026001 56.026001 0 0 1 114.289993 736.01001 A 56.026001 56.026001 0 0 1 170.315994 679.984009 A 56.026001 56.026001 0 0 1 226.341995 736.01001 Z" fill="#00CFFF"/>
				
					<linearGradient id="SVGID_26_" gradientUnits="userSpaceOnUse" x1="436.3887" y1="-173.062" x2="477.6704" y2="-4.9864" gradientTransform="matrix(0.6193 -0.7852 0.7852 0.6193 -61.377 1163.4204)">
					<stop offset="0" style="stop-color:#ACFFFE"/>
					<stop offset="0.1842" style="stop-color:#A4FBFD"/>
					<stop offset="0.4735" style="stop-color:#8DF2FA"/>
					<stop offset="0.83" style="stop-color:#69E2F5"/>
					<stop offset="1" style="stop-color:#55D9F2"/>
				</linearGradient>
				<path fill="url(#SVGID_26_)" d="M128.213,699.047c-0.644,0.734-1.274,1.49-1.886,2.267&#10;&#9;&#9;&#9;&#9;&#9;c-19.162,24.296-15.001,59.524,9.292,78.686c24.295,19.162,59.524,15.001,78.686-9.293c0.613-0.777,1.201-1.566,1.765-2.364&#10;&#9;&#9;&#9;&#9;&#9;L128.213,699.047z"/>
			</g>
		</g>
	</g>

</svg>